<svg width="235" height="34" viewBox="0 0 235 34" fill="none" xmlns="http://www.w3.org/2000/svg">
<g clip-path="url(#clip0)">
<path d="M34.1867 5.16998C31.5743 4.01231 28.7809 3.17093 25.8606 2.69189C25.5019 3.30604 25.0829 4.13207 24.794 4.7892C21.6896 4.34702 18.6137 4.34702 15.5664 4.7892C15.2775 4.13207 14.849 3.30604 14.4871 2.69189C11.5636 3.17093 8.76709 4.01538 6.15465 5.17612C0.885349 12.7178 -0.543076 20.0722 0.171136 27.3222C3.66602 29.7942 7.05297 31.2958 10.3828 32.2784C11.2049 31.2067 11.9382 30.0675 12.5699 28.8668C11.3668 28.4338 10.2146 27.8995 9.12578 27.2792C9.41464 27.0766 9.69715 26.8647 9.97014 26.6467C16.6107 29.5884 23.8259 29.5884 30.3871 26.6467C30.6633 26.8647 30.9458 27.0766 31.2315 27.2792C30.1395 27.9026 28.9841 28.4369 27.781 28.8699C28.4127 30.0675 29.1428 31.2098 29.9681 32.2815C33.3011 31.2988 36.6912 29.7972 40.1861 27.3222C41.0241 18.9176 38.7545 11.6308 34.1867 5.16998ZM13.4745 22.8635C11.4811 22.8635 9.84634 21.1009 9.84634 18.9545C9.84634 16.808 11.4462 15.0424 13.4745 15.0424C15.5029 15.0424 17.1377 16.805 17.1027 18.9545C17.1059 21.1009 15.5029 22.8635 13.4745 22.8635ZM26.8827 22.8635C24.8893 22.8635 23.2545 21.1009 23.2545 18.9545C23.2545 16.808 24.8543 15.0424 26.8827 15.0424C28.9111 15.0424 30.5458 16.805 30.5109 18.9545C30.5109 21.1009 28.9111 22.8635 26.8827 22.8635Z" fill="white"/>
<path d="M53.9075 8.90115H62.5732C64.6619 8.90115 66.4268 9.21744 67.8743 9.84694C69.3186 10.4764 70.401 11.3547 71.1184 12.4786C71.8358 13.6024 72.1977 14.8891 72.1977 16.3385C72.1977 17.7571 71.8231 19.0438 71.074 20.1953C70.3248 21.3499 69.1853 22.2619 67.6521 22.9344C66.1189 23.6069 64.2207 23.9447 61.9511 23.9447H53.9075V8.90115ZM61.8622 20.1216C63.2684 20.1216 64.3508 19.7808 65.1063 19.1021C65.8618 18.4204 66.2395 17.4931 66.2395 16.317C66.2395 15.2269 65.9031 14.3578 65.2301 13.7068C64.5572 13.0559 63.5382 12.7273 62.1765 12.7273H59.4656V20.1216H61.8622Z" fill="white"/>
<path d="M85.1712 23.9263C83.9714 23.6254 82.8889 23.1893 81.9271 22.6151V19.0469C82.654 19.5904 83.6285 20.0387 84.8506 20.3919C86.0727 20.7419 87.2536 20.917 88.3963 20.917C88.9296 20.917 89.3327 20.8494 89.6057 20.7143C89.8787 20.5792 90.0152 20.4165 90.0152 20.2291C90.0152 20.0142 89.9422 19.8361 89.793 19.6918C89.6438 19.5474 89.355 19.4277 88.9264 19.3263L86.26 18.746C84.7332 18.402 83.6508 17.9261 83.0064 17.315C82.362 16.707 82.0414 15.9086 82.0414 14.9198C82.0414 14.0877 82.3207 13.366 82.8858 12.7488C83.4476 12.1316 84.2475 11.6557 85.2855 11.3209C86.3235 10.9832 87.5361 10.8143 88.9296 10.8143C90.1739 10.8143 91.3135 10.9432 92.3515 11.2012C93.3895 11.4591 94.2465 11.7877 94.929 12.19V15.5647C94.2306 15.1624 93.4307 14.8461 92.5165 14.6066C91.6055 14.3702 90.6691 14.2535 89.7041 14.2535C88.3106 14.2535 87.6154 14.4838 87.6154 14.9413C87.6154 15.1563 87.7234 15.316 87.9392 15.4234C88.1551 15.5309 88.5519 15.6415 89.1264 15.7581L91.3484 16.1451C92.799 16.3876 93.8815 16.8145 94.5925 17.4225C95.3036 18.0305 95.6591 18.9302 95.6591 20.1217C95.6591 21.4267 95.0718 22.4616 93.8942 23.2292C92.7165 23.9969 91.0468 24.3808 88.882 24.3808C87.6091 24.3777 86.3711 24.2272 85.1712 23.9263Z" fill="white"/>
<path d="M100.903 23.4748C99.6304 22.8729 98.6686 22.0561 98.0274 21.0243C97.3862 19.9926 97.0624 18.8318 97.0624 17.5421C97.0624 16.2524 97.3957 15.0978 98.0623 14.0814C98.7289 13.065 99.7066 12.2666 100.995 11.6862C102.284 11.1059 103.824 10.8172 105.617 10.8172C107.839 10.8172 109.683 11.2686 111.15 12.1714V16.105C110.632 15.7611 110.029 15.4817 109.34 15.2667C108.652 15.0518 107.915 14.9443 107.128 14.9443C105.75 14.9443 104.674 15.1869 103.897 15.6751C103.119 16.1634 102.728 16.799 102.728 17.5882C102.728 18.362 103.106 18.9946 103.862 19.492C104.617 19.9864 105.712 20.2352 107.15 20.2352C107.89 20.2352 108.62 20.1308 109.34 19.925C110.058 19.7162 110.677 19.4613 111.194 19.1604V22.965C109.566 23.9108 107.677 24.3837 105.528 24.3837C103.719 24.3776 102.176 24.0767 100.903 23.4748Z" fill="white"/>
<path d="M116.692 23.475C115.41 22.8731 114.432 22.0502 113.759 21.003C113.086 19.9559 112.746 18.789 112.746 17.4993C112.746 16.2096 113.083 15.0581 113.759 14.0478C114.435 13.0376 115.407 12.2453 116.683 11.6711C117.955 11.0969 119.476 10.8113 121.238 10.8113C122.999 10.8113 124.52 11.0969 125.793 11.6711C127.066 12.2453 128.037 13.0314 128.704 14.0355C129.37 15.0397 129.703 16.1912 129.703 17.4963C129.703 18.786 129.37 19.9528 128.704 21C128.037 22.0471 127.062 22.87 125.78 23.4719C124.498 24.0738 122.984 24.3747 121.234 24.3747C119.485 24.3747 117.971 24.0768 116.692 23.475ZM123.444 19.6611C123.983 19.1391 124.256 18.4482 124.256 17.5884C124.256 16.7286 123.987 16.0438 123.444 15.5371C122.904 15.0274 122.168 14.7725 121.234 14.7725C120.285 14.7725 119.543 15.0274 119 15.5371C118.46 16.0469 118.19 16.7286 118.19 17.5884C118.19 18.4482 118.46 19.1391 119 19.6611C119.539 20.1832 120.285 20.4472 121.234 20.4472C122.168 20.4442 122.904 20.1832 123.444 19.6611Z" fill="white"/>
<path d="M143.055 11.6095V16.2525C142.49 15.8932 141.759 15.7151 140.855 15.7151C139.671 15.7151 138.757 16.0621 138.122 16.7561C137.484 17.4501 137.166 18.531 137.166 19.9926V23.9477H131.722V11.3731H137.055V15.3712C137.35 13.9095 137.83 12.8317 138.49 12.1346C139.147 11.4407 139.998 11.0937 141.033 11.0937C141.817 11.0937 142.49 11.2656 143.055 11.6095Z" fill="white"/>
<path d="M161.141 8.47134V23.9478H155.697V21.132C155.237 22.1914 154.539 22.999 153.599 23.5517C152.66 24.1014 151.498 24.3777 150.12 24.3777C148.889 24.3777 147.816 24.0891 146.898 23.5087C145.981 22.9283 145.273 22.133 144.775 21.1228C144.28 20.1125 144.029 18.9702 144.029 17.6928C144.013 16.3754 144.276 15.1932 144.819 14.1461C145.359 13.0989 146.124 12.2821 147.108 11.6956C148.092 11.1091 149.216 10.8143 150.476 10.8143C153.069 10.8143 154.809 11.9044 155.697 14.0816V8.47134H161.141ZM154.885 19.5751C155.44 19.0531 155.717 18.3745 155.717 17.5454C155.717 16.7439 155.447 16.0898 154.907 15.5893C154.367 15.0888 153.628 14.837 152.698 14.837C151.78 14.837 151.047 15.0918 150.498 15.6016C149.949 16.1113 149.676 16.7715 149.676 17.5883C149.676 18.4052 149.949 19.0715 150.498 19.5874C151.047 20.1033 151.771 20.3612 152.676 20.3612C153.593 20.3581 154.329 20.0971 154.885 19.5751Z" fill="white"/>
<path d="M76.7847 12.7119C78.2836 12.7119 79.4987 11.656 79.4987 10.3536C79.4987 9.0511 78.2836 7.99524 76.7847 7.99524C75.2858 7.99524 74.0707 9.0511 74.0707 10.3536C74.0707 11.656 75.2858 12.7119 76.7847 12.7119Z" fill="white"/>
<path d="M74.0682 14.3364C75.7316 15.0304 77.7948 15.0611 79.4963 14.3364V24.0153H74.0682V14.3364Z" fill="white"/>
</g>
<path d="M183.848 16.7597C185.251 16.3427 186.009 15.3571 186.009 14.0114C186.009 12.2108 184.417 10.7324 181.517 10.7324H174.106V24H181.308C184.871 24 186.558 22.3131 186.558 20.0766C186.558 18.4276 185.649 17.1767 183.848 16.7597ZM180.702 13.0448C182.009 13.0448 182.673 13.6134 182.673 14.6748C182.673 15.6793 182.009 16.2479 180.777 16.2479H177.252V13.0448H180.702ZM177.252 21.6876V18.1623H180.891C182.389 18.1623 183.185 18.7688 183.185 19.887C183.185 21.0622 182.37 21.6876 180.74 21.6876H177.252ZM192.246 10.7324H189.061V24H199.713V21.2896H192.246V10.7324ZM208.237 24.398C212.975 24.398 216.178 21.2707 216.178 17.3283C216.178 13.348 212.975 10.3344 208.256 10.3344C203.479 10.3344 200.295 13.348 200.295 17.3283C200.295 21.2707 203.479 24.398 208.237 24.398ZM208.237 21.6876C205.451 21.6876 203.669 19.8491 203.669 17.3473C203.669 14.8643 205.451 13.0448 208.237 13.0448C211.004 13.0448 212.786 14.8643 212.786 17.3473C212.786 19.8491 211.004 21.6876 208.237 21.6876ZM222.998 18.7119H230.125C229.841 20.6262 228.343 21.7066 226.012 21.7066C222.998 21.7066 221.122 19.9629 221.122 17.442C221.122 15.0918 222.752 13.1395 226.713 13.1395C228.855 13.1395 230.656 13.7271 231.869 14.5231V11.6611C230.523 10.9219 228.76 10.3533 226.221 10.3533C220.648 10.3533 217.805 13.5376 217.805 17.3852C217.805 21.3654 220.914 24.3791 225.879 24.3791C230.163 24.3791 233.025 22.0667 233.025 17.7263V16.3617H223.586L222.998 18.7119Z" fill="white"/>
<defs>
<clipPath id="clip0">
<rect width="161.052" height="29.5896" fill="white" transform="translate(-0.000244141 2.69189)"/>
</clipPath>
</defs>
</svg>
