<svg width="124" height="34" viewBox="0 0 124 34" fill="none" xmlns="http://www.w3.org/2000/svg">
<g clip-path="url(#clip0)">
<path d="M26.2421 7.00996C24.2367 6.07098 22.0925 5.38854 19.8509 5C19.5755 5.49813 19.2539 6.16812 19.0322 6.70112C16.6492 6.34247 14.2881 6.34247 11.949 6.70112C11.7273 6.16812 11.3983 5.49813 11.1206 5C8.87648 5.38854 6.72984 6.07347 4.72453 7.01494C0.679785 13.132 -0.41668 19.0971 0.131553 24.9776C2.81424 26.9826 5.41408 28.2005 7.97006 28.9975C8.60114 28.1283 9.16399 27.2042 9.64888 26.2304C8.72541 25.8792 7.84093 25.4458 7.00517 24.9427C7.2269 24.7783 7.44376 24.6065 7.65331 24.4296C12.7507 26.8157 18.289 26.8157 23.3255 24.4296C23.5374 24.6065 23.7543 24.7783 23.9736 24.9427C23.1354 25.4483 22.2485 25.8817 21.325 26.2329C21.8099 27.2042 22.3703 28.1308 23.0038 29C25.5622 28.203 28.1645 26.9851 30.8472 24.9776C31.4905 18.1606 29.7483 12.2503 26.2421 7.00996ZM10.3433 21.3611C8.81313 21.3611 7.55828 19.9315 7.55828 18.1905C7.55828 16.4496 8.78632 15.0174 10.3433 15.0174C11.9003 15.0174 13.1551 16.4471 13.1283 18.1905C13.1308 19.9315 11.9003 21.3611 10.3433 21.3611ZM20.6355 21.3611C19.1053 21.3611 17.8504 19.9315 17.8504 18.1905C17.8504 16.4496 19.0785 15.0174 20.6355 15.0174C22.1924 15.0174 23.4473 16.4471 23.4205 18.1905C23.4205 19.9315 22.1924 21.3611 20.6355 21.3611Z" fill="white"/>
<path d="M41.6289 11.1226H48.2808C49.8841 11.1226 51.2388 11.3791 52.3499 11.8897C53.4586 12.4003 54.2894 13.1126 54.8401 14.0242C55.3908 14.9358 55.6685 15.9793 55.6685 17.1549C55.6685 18.3056 55.381 19.3492 54.806 20.2832C54.2309 21.2197 53.3562 21.9594 52.1793 22.5049C51.0025 23.0503 49.5454 23.3243 47.8032 23.3243H41.6289V11.1226ZM47.735 20.2234C48.8144 20.2234 49.6453 19.947 50.2252 19.3965C50.8051 18.8436 51.0951 18.0914 51.0951 17.1375C51.0951 16.2533 50.8368 15.5485 50.3202 15.0204C49.8037 14.4924 49.0215 14.2259 47.9762 14.2259H45.8954V20.2234H47.735Z" fill="white"/>
<path d="M65.6272 23.3094C64.7061 23.0654 63.8752 22.7117 63.137 22.2459V19.3518C63.6949 19.7926 64.443 20.1563 65.3811 20.4427C66.3191 20.7266 67.2256 20.8686 68.1027 20.8686C68.5121 20.8686 68.8215 20.8138 69.0311 20.7042C69.2406 20.5946 69.3454 20.4626 69.3454 20.3107C69.3454 20.1363 69.2894 19.9919 69.1748 19.8748C69.0603 19.7578 68.8386 19.6606 68.5096 19.5784L66.4629 19.1077C65.2909 18.8287 64.46 18.4427 63.9654 17.947C63.4708 17.4539 63.2247 16.8063 63.2247 16.0043C63.2247 15.3294 63.4391 14.7441 63.8728 14.2434C64.3041 13.7428 64.9181 13.3568 65.7149 13.0853C66.5116 12.8113 67.4424 12.6743 68.5121 12.6743C69.4672 12.6743 70.342 12.7789 71.1387 12.9881C71.9355 13.1974 72.5934 13.4639 73.1172 13.7901V16.5274C72.5812 16.2011 71.9672 15.9446 71.2654 15.7503C70.5661 15.5585 69.8473 15.4639 69.1066 15.4639C68.0369 15.4639 67.5033 15.6507 67.5033 16.0218C67.5033 16.1961 67.5862 16.3256 67.7519 16.4128C67.9176 16.5 68.2221 16.5896 68.6631 16.6843L70.3688 16.9981C71.4823 17.1949 72.3132 17.5411 72.859 18.0342C73.4047 18.5274 73.6777 19.2571 73.6777 20.2235C73.6777 21.282 73.2269 22.1214 72.3229 22.7441C71.4189 23.3667 70.1373 23.6781 68.4755 23.6781C67.4985 23.6756 66.5482 23.5535 65.6272 23.3094Z" fill="white"/>
<path d="M77.703 22.9433C76.726 22.4551 75.9877 21.7926 75.4955 20.9557C75.0033 20.1189 74.7548 19.1774 74.7548 18.1313C74.7548 17.0852 75.0106 16.1487 75.5223 15.3243C76.034 14.4999 76.7844 13.8523 77.7737 13.3816C78.763 12.9109 79.9447 12.6768 81.3214 12.6768C83.027 12.6768 84.4426 13.0429 85.5683 13.7751V16.9657C85.1712 16.6867 84.7082 16.4601 84.1795 16.2857C83.6508 16.1114 83.0855 16.0242 82.4812 16.0242C81.4237 16.0242 80.5977 16.221 80.0007 16.617C79.4038 17.013 79.1041 17.5286 79.1041 18.1687C79.1041 18.7963 79.394 19.3094 79.9739 19.7129C80.5538 20.1139 81.3945 20.3156 82.4982 20.3156C83.066 20.3156 83.6264 20.2309 84.1795 20.0641C84.7302 19.8947 85.2053 19.688 85.6025 19.4439V22.5298C84.3525 23.2969 82.9027 23.6805 81.2531 23.6805C79.8643 23.6755 78.6801 23.4314 77.703 22.9433Z" fill="white"/>
<path d="M89.8227 22.9434C88.8383 22.4552 88.0878 21.7877 87.5713 20.9384C87.0547 20.0891 86.794 19.1426 86.794 18.0965C86.794 17.0505 87.0523 16.1165 87.5713 15.297C88.0903 14.4776 88.8359 13.835 89.8154 13.3693C90.7925 12.9035 91.9596 12.6719 93.3119 12.6719C94.6642 12.6719 95.8313 12.9035 96.8084 13.3693C97.7855 13.835 98.5311 14.4726 99.0428 15.2871C99.5544 16.1015 99.8103 17.0355 99.8103 18.094C99.8103 19.1401 99.5544 20.0866 99.0428 20.9359C98.5311 21.7852 97.783 22.4527 96.7987 22.9409C95.8143 23.429 94.652 23.6731 93.3095 23.6731C91.9669 23.6731 90.8046 23.4315 89.8227 22.9434ZM95.0053 19.85C95.4195 19.4265 95.6291 18.8661 95.6291 18.1688C95.6291 17.4714 95.422 16.916 95.0053 16.505C94.5911 16.0916 94.0258 15.8848 93.3095 15.8848C92.5809 15.8848 92.0108 16.0916 91.5941 16.505C91.1799 16.9185 90.9728 17.4714 90.9728 18.1688C90.9728 18.8661 91.1799 19.4265 91.5941 19.85C92.0083 20.2734 92.5809 20.4876 93.3095 20.4876C94.0258 20.4851 94.5911 20.2734 95.0053 19.85Z" fill="white"/>
<path d="M110.059 13.3193V17.0852C109.625 16.7938 109.065 16.6493 108.37 16.6493C107.461 16.6493 106.76 16.9308 106.272 17.4937C105.782 18.0565 105.539 18.9333 105.539 20.1188V23.3268H101.36V13.1275H105.454V16.3704C105.68 15.1848 106.048 14.3106 106.555 13.7452C107.059 13.1823 107.712 12.9009 108.507 12.9009C109.108 12.9009 109.625 13.0404 110.059 13.3193Z" fill="white"/>
<path d="M123.942 10.7739V23.3268H119.763V21.0429C119.41 21.9022 118.874 22.5572 118.153 23.0056C117.432 23.4514 116.54 23.6755 115.482 23.6755C114.537 23.6755 113.713 23.4414 113.009 22.9707C112.305 22.5 111.762 21.8549 111.379 21.0354C110.999 20.216 110.806 19.2895 110.806 18.2534C110.794 17.1849 110.997 16.226 111.413 15.3767C111.827 14.5273 112.415 13.8648 113.17 13.3891C113.925 12.9134 114.788 12.6743 115.755 12.6743C117.746 12.6743 119.081 13.5585 119.763 15.3244V10.7739H123.942ZM119.14 19.7802C119.566 19.3567 119.778 18.8063 119.778 18.1338C119.778 17.4838 119.571 16.9533 119.157 16.5473C118.742 16.1413 118.175 15.9371 117.461 15.9371C116.757 15.9371 116.194 16.1438 115.772 16.5572C115.351 16.9707 115.141 17.5062 115.141 18.1687C115.141 18.8312 115.351 19.3717 115.772 19.7901C116.194 20.2085 116.749 20.4178 117.444 20.4178C118.148 20.4153 118.713 20.2036 119.14 19.7802Z" fill="white"/>
<path d="M59.1896 14.2133C60.3401 14.2133 61.2728 13.3569 61.2728 12.3005C61.2728 11.2441 60.3401 10.3877 59.1896 10.3877C58.039 10.3877 57.1063 11.2441 57.1063 12.3005C57.1063 13.3569 58.039 14.2133 59.1896 14.2133Z" fill="white"/>
<path d="M57.1044 15.5308C58.3811 16.0937 59.9649 16.1186 61.2709 15.5308V23.3813H57.1044V15.5308Z" fill="white"/>
</g>
<defs>
<clipPath id="clip0">
<rect width="124" height="24" fill="white" transform="translate(0 5)"/>
</clipPath>
</defs>
</svg>
