<svg id="Art" xmlns="http://www.w3.org/2000/svg" viewBox="0 0 420 230">
  <g>
    <g>
      <path d="M338.4,165.6a115.3,115.3,0,0,1-25.8,10.2l-2.8.8a136.7,136.7,0,0,1-15.5,3.2l-2.9.5a176.1,176.1,0,0,1-25.8,1.8c-3.9,0-7.8-.1-11.7-.4l1.2-19.9a165,165,0,0,0,32.7-1.2l3-.5c5.1-.8,9.8-1.8,14.2-2.9l2.9-.8a105.7,105.7,0,0,0,20.8-8.2Z" fill="#898989"/>
      <path d="M294.3,179.8l-2.9.5-3.6-19.7,3-.5Z" fill="#5a5d60"/>
      <path d="M312.6,175.8l-2.8.8L305,157.2l2.9-.8Z" fill="#5a5d60"/>
    </g>
    <g>
      <path d="M332.7,204.5v18.7A6.7,6.7,0,0,1,326,230H294.8c-4.4,0-6.9-4.8-5.1-9.5s5.6-8.6,12.6-12.2l2.8-1.3a38,38,0,0,1,5.1-1.6A62.1,62.1,0,0,1,332.7,204.5Z" fill="#2859d1"/>
      <path d="M309.1,230h-3l-3.8-21.7,2.8-1.3Z" fill="#2828c6"/>
    </g>
    <g>
      <path d="M413.3,179.1c-.7.9-1.4,1.9-2.2,2.8a122.5,122.5,0,0,1-13.3,13.5l-8.6-25.7a98.7,98.7,0,0,1,15-4.8l3-.5c5.1-.7,9.6-.3,10.5,3.1S416.4,174.8,413.3,179.1Z" fill="#d6d1c5"/>
      <path d="M413.3,179.1c-.7.9-1.4,1.9-2.2,2.8l-6.9-17,3-.5Z" fill="#adacac"/>
    </g>
    <g>
      <rect width="236.4" height="82.71" rx="13.5" fill="#202225"/>
      <g>
        <path d="M210.5,44.8V37.9h-6.3a12.8,12.8,0,0,0-1.7-4.2l4.2-4.2-3.8-3.7-4,4a14,14,0,0,0-4.3-2V22h-6.9v5.8a13,13,0,0,0-4.3,2l-4.1-4-3.8,3.7,4.2,4.2a15.4,15.4,0,0,0-1.7,4.2h-6.2v6.9h6.5a16.2,16.2,0,0,0,1.9,3.7l-4.7,4.7,3.8,3.7,4.8-4.7a14.4,14.4,0,0,0,3.6,1.5v7h6.9v-7a16.1,16.1,0,0,0,3.6-1.5l4.7,4.7,3.8-3.7-4.6-4.7a12.7,12.7,0,0,0,1.8-3.7Zm-19.4,2.5a6.6,6.6,0,0,1,0-13.1,6.5,6.5,0,0,1,6.6,6.6A6.6,6.6,0,0,1,191.1,47.3Z" fill="#d7dadd"/>
        <path d="M116.6,22c-10.5-.2-19,8.6-19,19V56.9a3.9,3.9,0,0,0,3.9,3.8H103a7.5,7.5,0,1,0,0-14.9V40.9a13.6,13.6,0,0,1,13.5-13.5,13.2,13.2,0,0,1,12.9,13.2v5.2a7.5,7.5,0,0,0,0,14.9H131a3.9,3.9,0,0,0,3.9-3.8V40.6A18.6,18.6,0,0,0,116.6,22Z" fill="#d7dadd"/>
        <g>
          <path d="M56.8,38.9H51.4a10.1,10.1,0,1,1-20.1,0H26A15.5,15.5,0,0,0,38.7,54.1v6.6H44V54.1A15.6,15.6,0,0,0,56.8,38.9Z" fill="#d7dadd"/>
          <path d="M41.4,44.1a5.2,5.2,0,0,0,5.2-5.2V27.2h0a5.3,5.3,0,0,0-10.5,0V38.9A5.2,5.2,0,0,0,41.4,44.1Z" fill="#d7dadd"/>
        </g>
      </g>
    </g>
    <g>
      <polygon points="208.5 89.2 201.9 82.4 222.5 62 229.1 68.7 208.5 89.2" fill="#898989"/>
      <path d="M226.6,75.8a1.9,1.9,0,0,1-1-.3l-11-6.8A1.9,1.9,0,0,1,214,66a2.1,2.1,0,0,1,2.7-.7l11,6.8a2,2,0,0,1-1.1,3.7Z" fill="#adacac"/>
      <path d="M216.5,86.1a1.7,1.7,0,0,1-1-.3l-11-6.8a1.9,1.9,0,0,1-.7-2.7,2.2,2.2,0,0,1,2.8-.7l10.9,6.8a1.9,1.9,0,0,1,.7,2.7A2.1,2.1,0,0,1,216.5,86.1Z" fill="#adacac"/>
      <path d="M221.6,80.9a2.3,2.3,0,0,1-1.1-.3l-11-6.7a2.1,2.1,0,0,1-.6-2.8,2,2,0,0,1,2.7-.6l11,6.7a2,2,0,0,1,.7,2.8A2.1,2.1,0,0,1,221.6,80.9Z" fill="#adacac"/>
      <path d="M191.2,68.8,164.4,42l-3.6,3.6a73,73,0,0,0,9,44.6Z" fill="#898989"/>
      <path d="M295.4,188.6l-50.2-87.3a11.6,11.6,0,0,1-1.3-6.6c1.1-10.5,3.4-48.7,3.6-54.9s-4-21.1-25-27.2-27.7-1.7-27.7-1.7l-3.6,3.7L214,37.5l-2.8,11.2L176.5,83.3l39.3,25.1a12.2,12.2,0,0,1,5,5.3l40.5,91.8a19,19,0,0,0,34.1-16.9Zm-64.7-112L217.1,90.2a3.4,3.4,0,0,1-4.9,0L200.7,78.7a3.5,3.5,0,0,1,0-5l13.5-13.6a3.5,3.5,0,0,1,5,0l11.4,11.5A3.6,3.6,0,0,1,230.7,76.6Zm51.8,128.9a9.3,9.3,0,1,1,4.3-12.5A9.3,9.3,0,0,1,282.5,205.5Z" fill="#adacac"/>
    </g>
    <g>
      <path d="M169.6,131a9.9,9.9,0,0,0-7.1-3.1H151.4V230h46V160.2Z" fill="#ffaed7"/>
      <path d="M187.4,160.2,159.6,131a9.7,9.7,0,0,0-14.2,0l-27.8,29.2V230h69.8Z" fill="#ff2ea2"/>
      <path d="M152.5,134.6H74.4v10.2h78.1a5.1,5.1,0,0,0,0-10.2Z" fill="#d7dadd"/>
      <rect x="92" y="160.2" width="95.4" height="69.75" fill="#ff78b9"/>
      <path d="M74.2,131a9.9,9.9,0,0,0-7.1-3.1h-11V230H102V160.2Z" fill="#ffaed7"/>
      <path d="M92,160.2,64.2,131A9.7,9.7,0,0,0,50,131L22.2,160.2V230H92Z" fill="#ff78b9"/>
      <circle cx="57.1" cy="139.7" r="5.1" transform="translate(-79.9 76.5) rotate(-43)" fill="#d7dadd"/>
      <g>
        <rect x="102" y="205.2" width="85.4" height="3" fill="#ff2ea2"/>
        <rect x="102" y="182" width="85.4" height="3" fill="#ff2ea2"/>
      </g>
    </g>
    <path d="M362.9,143.7,331.8,149c-9.3,1.6-14.2,4.9-18.3,17.9l-5.4,20.3c-3.3,17.4,13,34.3,30.5,31.3l46.4-7.9a20.5,20.5,0,0,0,14.9-29.3l-12.5-25.2A23,23,0,0,0,362.9,143.7Z" fill="#eae0d3"/>
    <g>
      <path d="M380.8,189.3a1.5,1.5,0,0,1-1-2.7l9.6-7.7a1.5,1.5,0,0,1,1.9,2.3l-9.6,7.8A1.4,1.4,0,0,1,380.8,189.3Z" fill="#898989"/>
      <path d="M383.5,194.7a1.5,1.5,0,0,1-1-2.7l9.6-7.7a1.5,1.5,0,1,1,1.9,2.3l-9.6,7.7A1.1,1.1,0,0,1,383.5,194.7Z" fill="#898989"/>
    </g>
    <circle cx="247" cy="171" r="16.4" fill="#6990ff"/>
    <g>
      <path d="M382.8,144.1A12.3,12.3,0,0,1,371,156.7l-8.2.3h-3l-17.8.6h-3l-17.8.6h-3a9,9,0,0,1-8.1-8.7l-.3-9.7,7.7-.3h3l17.9-.5h3l17.8-.6h3l20.4-.7Z" fill="#6990ff"/>
      <path d="M319.4,158.4h-1.2l-.7-18.7h3l.7,18.8Z" fill="#2859d1"/>
      <rect x="338.7" y="139" width="3" height="18.74" transform="translate(-4.8 11.4) rotate(-1.9)" fill="#2859d1"/>
      <polygon points="362.8 157 359.8 157.1 359.2 138.4 362.2 138.3 362.8 157" fill="#2859d1"/>
    </g>
    <g>
      <g>
        <path d="M410.6,81c-4.1,7.7-16.7,12.1-22.3,13.8h0l-2,.6c-3.8,1.1-7-1-6.4-5.4s3.4-16,6.7-25.8,11.5-9.6,16.8-5.5a10.5,10.5,0,0,1,1.9,1.7C413.6,69.5,413.2,76.2,410.6,81Z" fill="#eae0d3"/>
        <path d="M410.6,81c-4.1,7.7-16.7,12.1-22.3,13.8l15.1-36.1a10.5,10.5,0,0,1,1.9,1.7C413.6,69.5,413.2,76.2,410.6,81Z" fill="#ffaed7"/>
      </g>
      <g>
        <path d="M306.6,91.4l-1.9-.7c-5.5-2.2-17.7-7.5-21.3-15.4-2.2-5-2.2-11.8,6.8-20.2a15.6,15.6,0,0,1,2-1.6c5.6-3.7,13.7-3.6,16.4,6.7s4.5,21.1,4.8,26.2S310.3,92.7,306.6,91.4Z" fill="#d6d1c5"/>
        <path d="M304.7,90.7c-5.5-2.2-17.7-7.5-21.3-15.4-2.2-5-2.2-11.8,6.8-20.2a15.6,15.6,0,0,1,2-1.6Z" fill="#ff78b9"/>
      </g>
      <path d="M278.7,106.5c-3.3-.1-6.2,4.5-6.5,10.4s2.2,10.7,5.5,10.9l11.3.5,1.1-21.2Z" fill="#2859d1"/>
      <path d="M387.9,94.4c-4.4-3.7-5-7.1-7.2-13.3-4.6-13.4-14.5-26.5-33.3-27s-28.8,10-34.4,22c-2.2,4.6-3.7,7.9-15.1,14.8-5.7,3.5-16.4,9.7-17,25.3A28,28,0,0,0,307,145.1l66.3,3.1A27.9,27.9,0,0,0,402,121.6C402.6,108.3,394.4,100,387.9,94.4Z" fill="#eae0d3"/>
      <g>
        <path d="M348.1,54.1a2.5,2.5,0,0,1-2.5-2.3c-.1-1.1-1.4-25.1,15.3-31.7S402,30.7,403,31.5a2.4,2.4,0,0,1,.7,3.4,2.5,2.5,0,0,1-3.5.7c-.3-.2-23.7-16.2-37.5-10.8s-12.2,26.4-12.1,26.6a2.6,2.6,0,0,1-2.4,2.7Z"/>
        <rect x="332.1" y="49.2" width="32" height="13.39" rx="4" transform="translate(3.1 -16.5) rotate(2.7)" fill="#6990ff"/>
        <circle cx="403.6" cy="34.1" r="16.4" fill="#6990ff"/>
      </g>
      <g>
        <path d="M394.1,112c-3.4-.1-6.3,4.5-6.6,10.3s2.2,10.8,5.5,11l11.4.5,1-21.2Z" fill="#2859d1"/>
        <ellipse cx="404.9" cy="123.2" rx="10.6" ry="6" transform="translate(262.6 521.7) rotate(-87.3)" fill="#6990ff"/>
      </g>
      <g>
        <ellipse cx="320" cy="91.4" rx="3.2" ry="6.1" transform="translate(13.6 221.2) rotate(-38.9)"/>
        <path d="M333.3,101.3c0-1.7-6.2-2-6.3-.3s1.7,2.7,3,2.8S333.2,103,333.3,101.3Z"/>
        <path d="M329.4,112.6c2,6,6.7,9.8,10.7,8.6s5.9-6.8,4.5-12.8Z" fill="#ffaed7"/>
        <ellipse cx="353.1" cy="93" rx="6.1" ry="3.2" transform="translate(39.8 280.5) rotate(-45.6)"/>
        <path d="M356.5,110.1a1.8,1.8,0,0,1-1-.4,1.5,1.5,0,0,1-.2-2.1l5.7-7a1.5,1.5,0,0,1,2.1-.2,1.6,1.6,0,0,1,.2,2.1l-5.7,7A1.4,1.4,0,0,1,356.5,110.1Z" fill="#ffaed7"/>
        <path d="M362.8,110.3a1.4,1.4,0,0,1-.9-.3,1.5,1.5,0,0,1-.3-2.1l5.7-7a1.6,1.6,0,0,1,2.1-.2,1.4,1.4,0,0,1,.2,2.1l-5.6,7A1.8,1.8,0,0,1,362.8,110.3Z" fill="#ffaed7"/>
        <path d="M369.2,110.6a1.3,1.3,0,0,1-1-.4,1.5,1.5,0,0,1-.2-2.1l5.7-6.9a1.4,1.4,0,0,1,2.1-.2,1.5,1.5,0,0,1,.2,2.1l-5.7,6.9A1.4,1.4,0,0,1,369.2,110.6Z" fill="#ffaed7"/>
        <path d="M315.3,108.1a1.6,1.6,0,0,1-1.3-.6l-5-7.4a1.6,1.6,0,0,1,.3-2.1,1.5,1.5,0,0,1,2.1.4l5.1,7.4a1.5,1.5,0,0,1-.4,2.1A1.1,1.1,0,0,1,315.3,108.1Z" fill="#ffaed7"/>
        <path d="M308.9,107.9a1.4,1.4,0,0,1-1.2-.7l-5.1-7.4a1.5,1.5,0,0,1,.4-2.1,1.6,1.6,0,0,1,2.1.4l5.1,7.4a1.6,1.6,0,0,1-.4,2.1A1.6,1.6,0,0,1,308.9,107.9Z" fill="#ffaed7"/>
        <path d="M302.6,107.6a1.3,1.3,0,0,1-1.2-.6l-5.1-7.4a1.5,1.5,0,0,1,.3-2.1,1.5,1.5,0,0,1,2.1.4l5.1,7.4a1.5,1.5,0,0,1-.4,2.1Z" fill="#ffaed7"/>
      </g>
    </g>
    <g>
      <path d="M412.3,230a59.6,59.6,0,0,1-10.8-1.1l-3-.7c-8.5-2.1-17.2-6.1-19.2-12.9s3.5-12.9,7.7-15.1c7.8-4.1,14.2-1.1,18.7,1.4a22.7,22.7,0,0,1,4.9,3.5,23.9,23.9,0,0,1,2.3,2.2c4.8,5.3,6.8,11.4,7,15S418.7,230,412.3,230Z" fill="#6990ff"/>
      <path d="M412.9,207.3l-11.4,21.6-3-.7,12.1-23.1A23.9,23.9,0,0,1,412.9,207.3Z" fill="#2859d1"/>
    </g>
    <g>
      <path d="M378,178.7a104.3,104.3,0,0,1-9.4,4.8l-2.8,1.3a113.5,113.5,0,0,1-19.2,6.3l-2.9.6a120.9,120.9,0,0,1-20.6,2.5l-3,.2h-5.9c-5-.3-11.4.4-16.1-1.2l4.2-19.2c5.8.3,11.3.4,16.4.3h3a114.1,114.1,0,0,0,17.3-2l2.9-.6a92.1,92.1,0,0,0,17-5.8l2.8-1.2,6.4-3.4a10,10,0,0,1,13.7,3.7A10.1,10.1,0,0,1,378,178.7Z" fill="#d6d1c5"/>
      <path d="M346.6,191.1l-2.9.6L339,172.3l2.9-.6Z" fill="#adacac"/>
      <path d="M368.6,183.5l-2.8,1.3-6.9-18.9,2.8-1.2Z" fill="#adacac"/>
      <path d="M323.1,194.2l-3,.2-1.4-20h3Z" fill="#adacac"/>
    </g>
    <circle cx="290.9" cy="182.3" r="16.4" fill="#6990ff"/>
    <path d="M213.6,135.1a8.2,8.2,0,0,1-3.7-5.8l-.6-4c-.1-.2-.2-.4-.4-.4h0c-.3,0-.4.2-.5.4l-.6,4a8.2,8.2,0,0,1-3.7,5.8l-.5.4c-.1,0-.2.2-.2.3h0a.5.5,0,0,0,.2.4l.5.3a8.2,8.2,0,0,1,3.7,5.8l.6,4c.1.2.2.4.5.4h0c.2,0,.3-.2.4-.4l.6-4a8.2,8.2,0,0,1,3.7-5.8l.5-.3a.5.5,0,0,0,.2-.4h0c0-.1-.1-.3-.2-.3Z" fill="#34f4cf"/>
    <path d="M321.9,27.8a8.3,8.3,0,0,1-3.8-5.8l-.6-4.1c0-.2-.2-.3-.4-.3h0c-.2,0-.4.1-.4.3l-.6,4.1a8.2,8.2,0,0,1-3.7,5.8l-.6.3c-.1.1-.1.2-.1.4h0a.4.4,0,0,0,.1.3l.6.4a8.2,8.2,0,0,1,3.7,5.7l.6,4.1c0,.2.2.3.4.3h0c.2,0,.4-.1.4-.3l.6-4.1a8.3,8.3,0,0,1,3.8-5.7l.5-.4c.1-.1.2-.2.2-.3h0a.5.5,0,0,0-.2-.4Z" fill="#ffe75c"/>
    <path d="M274.2,18.5a8.5,8.5,0,0,1-3.7-5.7l-.6-4.1c0-.2-.2-.3-.4-.3h0c-.2,0-.4.1-.4.3l-.6,4.1a8.3,8.3,0,0,1-3.8,5.7l-.5.4-.2.3h0a.5.5,0,0,0,.2.4l.5.3a8.3,8.3,0,0,1,3.8,5.8l.6,4.1c0,.2.2.3.4.3h0c.2,0,.4-.1.4-.3l.6-4.1a8.5,8.5,0,0,1,3.7-5.8l.6-.3c.1-.1.1-.2.1-.4h0a.4.4,0,0,0-.1-.3Z" fill="#ffaed7"/>
    <path d="M28.2,115.7a12.1,12.1,0,0,1-5.5-8.5l-.9-6a.6.6,0,0,0-.6-.5h0a.6.6,0,0,0-.6.5l-.9,6a12.1,12.1,0,0,1-5.5,8.5l-.7.5a.5.5,0,0,0-.3.5h0a.5.5,0,0,0,.3.5l.7.5a12.5,12.5,0,0,1,5.5,8.6l.9,5.9a.6.6,0,0,0,.6.5h0a.6.6,0,0,0,.6-.5l.9-5.9a12.5,12.5,0,0,1,5.5-8.6l.8-.5a.5.5,0,0,0,.3-.5h0a.5.5,0,0,0-.3-.5Z" fill="#8cd9ff"/>
  </g>
</svg>
