<svg id="Art" xmlns="http://www.w3.org/2000/svg" xmlns:xlink="http://www.w3.org/1999/xlink" viewBox="0 0 420 230">
  <defs>
    <linearGradient id="linear-gradient" x1="335.76" y1="97.4" x2="335.76" y2="176.63" gradientUnits="userSpaceOnUse">
      <stop offset="0.42" stop-color="#2859d1"/>
      <stop offset="0.67" stop-color="#283cca"/>
      <stop offset="0.87" stop-color="#2828c6"/>
    </linearGradient>
    <linearGradient id="linear-gradient-2" x1="109.68" y1="54.35" x2="109.68" y2="11.92" gradientUnits="userSpaceOnUse">
      <stop offset="0.32" stop-color="#2859d1"/>
      <stop offset="0.36" stop-color="#2859d1" stop-opacity="0.83"/>
      <stop offset="0.46" stop-color="#2859d1" stop-opacity="0.42"/>
      <stop offset="0.55" stop-color="#2859d1" stop-opacity="0"/>
    </linearGradient>
  </defs>
  <g>
    <path d="M265.7,71.4c12.2-18.4,3.6-47.9-28.5-43.9-24.6,3.1-45.8,18.4-60.8,28.5-19,12.8-28.7,27.7-91.7,8.5C13.9,42.8-9.7,87.8,12.1,124.3c11.4,19,5.1,31.1,10,60.4,6.9,41.6,63.9,49,84.7,17.7,14.4-21.7,8.8-45.8-1-61.1-8.5-13-9.6-21.8-5-34.1s39.1-4.5,60.4-10.8S202.3,71.1,209,86c3.3,7.5-9,12.4-4.9,28.8l31.1,14.4L271.9,115s1.8-9.2-5.2-19.9C261.5,87.1,260,83.2,265.7,71.4Z" fill="#fff"/>
    <g>
      <path d="M400,7.2c-18.5-2.5-36,.1-50.4,4.2-17.6,5-30.5,12.3-34.1,14.8l16.2,14.2,1.2,1L346.1,53l9.9,8.6a27.3,27.3,0,0,0,4.1-6.6,35.6,35.6,0,0,0,3.5-18.3h0c.5-.3,1.4-.9,2.8-1.6,7.7-4.4,27.8-15.4,34.2-20.3,1.1-.8,3.6-2.6,3.6-4.3S402.8,7.6,400,7.2Z" fill="#0ec2bc"/>
      <path d="M350,46.1a21.6,21.6,0,0,0,1.4-8.1,15.6,15.6,0,0,0-3.9-10.3c4.5-6.6,4.8-12.6,2.1-16.3-17.6,5-30.5,12.3-34.1,14.8L346.1,53l9.9,8.6a27.3,27.3,0,0,0,4.1-6.6Z" fill="#ffdaa2"/>
      <path d="M366.4,35.1c-1.4.7-2.3,1.3-2.8,1.6a40.4,40.4,0,0,0-2.4-10.1,1.6,1.6,0,0,1,.8-2,1.5,1.5,0,0,1,2,.8A41.9,41.9,0,0,1,366.4,35.1Z" fill="#008fb7"/>
      <path d="M341.8,20.7a14.4,14.4,0,0,1-5.1,7.2,10.6,10.6,0,0,1-8.8,2.1,4.9,4.9,0,0,1-2.5-1.7c-2.1-2.9-.5-7.8,3.5-10.7s10.1-4.2,12.4-1.3C342.2,17.4,342.2,19,341.8,20.7Z" fill="#ff78b9"/>
      <path d="M341.8,20.7a14.4,14.4,0,0,1-5.1,7.2,10.6,10.6,0,0,1-8.8,2.1c-.7-2.5.7-5.8,3.6-8l.9-.6a14,14,0,0,1,4.8-1.8C339,19.4,340.7,19.6,341.8,20.7Z" fill="#ff2ea2"/>
      <circle cx="334.3" cy="19.2" r="2.9" fill="#fff"/>
      <path d="M418.9,10.5l-5.2,4.9a5.9,5.9,0,0,1-6.9.8l-4-2.4A4.5,4.5,0,0,1,401.6,7l3-3.7a5.7,5.7,0,0,1,6.6-1.6l6.6,2.8a3.6,3.6,0,0,1,2.1,2.7A3.8,3.8,0,0,1,418.9,10.5Z" fill="#2859d1"/>
      <path d="M418.9,10.5l-5.2,4.9a5.5,5.5,0,0,1-2.6,1.4l-1-5.5a2.3,2.3,0,0,1,1.8-2.6l8-1.5A3.8,3.8,0,0,1,418.9,10.5Z" fill="#2828c6"/>
    </g>
    <g>
      <path d="M353.1,75.2a13.8,13.8,0,0,0-10.9,16.2l27.1-5.3A13.9,13.9,0,0,0,353.1,75.2Z" fill="#d7dadd"/>
      <path d="M284.1,76.2A13.8,13.8,0,0,0,297.9,90V62.4A13.8,13.8,0,0,0,284.1,76.2Z" fill="#d7dadd"/>
    </g>
    <polygon points="304.5 91.4 302.2 175.2 368 175.2 369.3 89.7 304.5 91.4" fill="url(#linear-gradient)"/>
    <path d="M305.3,159.9c10.2,0,21-5.7,28.8-14.2,4-4.4,11.7-15.3,17.5-25.2s22.1-38.8,22.1-38.8L300,91.4l-22.9,57.2Z" fill="#0ec2bc"/>
    <path d="M297.1,141.5s17.1-4.5,31-23.7l-38-.9Z" fill="#008fb7"/>
    <g>
      <path d="M194.9,152.5c.1,14.3,2.7,35.6,6.9,39.2s34.2,18.5,49.3,22.5,66.3-6.8,89.1-14.6Z" fill="#2828c6"/>
      <path d="M200.1,154.3c-.6,8.5,2,27.8,4.3,32.5,0,0,8.1,1.3,8.7-6.8s-3.5-22.6-3.5-22.6Z"/>
      <path d="M213.1,165.1l-42.3-16.6a2.3,2.3,0,0,0-2,.1c-4.3,2.3-20.3,11.4-24,12.1s-6.6-1.7-9.6-4l-1.8-4.3-1.8-3.1-2.2.6c-5.4,1.4-19.8,5.1-23.7,4.8a5.7,5.7,0,0,1-5.8-4.1c-.1-.2-.1-.5-.2-.7-.3-2.1.9-4.3,4.5-5.3l15.4-4.6,12.5-3.8c10.6-3.2,21.3-10,21.3-10L139,116.8h-.1l-.2-.2h.1l-.4-.3c-1.4-1-3.3-2.5-3.3-4.7a4.2,4.2,0,0,1,4.5-4.6c2.1,0,10.8,3.3,24.5,9.1l7.1,3c5.9,2.5,9.7,4.1,13.4,6,7.4,3.8,19.9,10.9,19.9,10.9Z" fill="#c65c47"/>
      <path d="M130.5,139.3l-.6,5.7-.5,4.9c-5.4,1.4-19.8,5.1-23.7,4.8a5.7,5.7,0,0,1-5.8-4.1c-.1-.2-.1-.5-.2-.7-.3-2.1.9-4.3,4.5-5.3l15.4-4.6Z" fill="#b95045"/>
      <path d="M171.2,119.2c-.7,3.2-1.9,8.3-3.7,14.1s-4.1,6.4-16.3,8.2L129.9,145c-11.4,2-23.8,4-30.2,4.9-.3-2.1.9-4.3,4.5-5.3l15.4-4.6,12.5-3.8c10.6-3.2,21.3-10,21.3-10L139,116.8h-.1l-.2-.2h.1l-.4-.3c-1.4-1-3.3-2.5-3.3-4.7a4.2,4.2,0,0,1,4.5-4.6c2.1,0,10.8,3.3,24.5,9.1Z" fill="#db806e"/>
      <path d="M154.4,142.1V152l-7.6,5.4-8.9,1.3s-20.9-15.2-23.5-17.4-8.5-6.9-8.5-9.6,3.7-6.6,6.4-6,7,2.6,10.4,4.6,6,3.8,7,4.5l.3.2a38.5,38.5,0,0,1-4.3-7.4c-1-2.4,3.5-5.3,6.1-5C136.3,123,143.3,130.6,154.4,142.1Z" fill="#c65c47"/>
      <path d="M141.9,152.5a1.8,1.8,0,0,1-1,.4,1.4,1.4,0,0,1-1.1-.6c-7.2-8.2-15.2-19.3-17.1-22,3.3,1.9,6,3.8,7,4.5,3.4,4.6,8,10.6,12.4,15.6A1.5,1.5,0,0,1,141.9,152.5Z" fill="#842825"/>
    </g>
    <path d="M316.6,25.5s-27.4,16.8-26.2,35.9a27.4,27.4,0,0,0,4.2,11.8l32.8,5.4,16.6-29Z" fill="#c65c47"/>
    <path d="M356.7,60.7,342.8,48.6,325.9,77l-7-6.6a19,19,0,0,0-29.5,4.2l-8,13.4a27.9,27.9,0,0,0,9.2,36.9c12.9,8.3,30.2,4.2,38.6-8.6L357,74.1C361.2,67.8,361.9,65.3,356.7,60.7Z" fill="#d7dadd"/>
    <path d="M353.7,67.8c.3-2.5-3.8-5.7-9.6-5.4l-2.2,13.5C347.9,74.6,353.3,70.5,353.7,67.8Z" fill="#c65c47"/>
    <g>
      <path d="M330.1,45.5c0,3.1-4,3.4-8.8,3.4s-8.9-.3-8.9-3.4,4-5.6,8.9-5.6S330.1,42.4,330.1,45.5Z" fill="#d7dadd"/>
      <path d="M306.5,45.5c0,3.1-4,3.4-8.8,3.4s-8.9-.3-8.9-3.4,4-5.6,8.9-5.6S306.5,42.4,306.5,45.5Z" fill="#d7dadd"/>
      <ellipse cx="319" cy="54.4" rx="2.5" ry="3.5"/>
      <ellipse cx="297.5" cy="54.4" rx="2.5" ry="3.5"/>
      <path d="M313.8,65.5c.4,4-5.2,5.7-9.3,5.7s-7.8-2-7.8-5.4,5-8.9,9-8.2S313.6,62.8,313.8,65.5Z" fill="#db806e"/>
    </g>
    <path d="M318.9,80.2a14.2,14.2,0,0,1-1.4,2.3c-3.2,4.4-9,8-12.6,7.1a2.2,2.2,0,0,1-1.5-.8c-1.3-1.3-.8-3.8-2.3-5.5s-3.3-3.7-2.1-4.5,1.9,0,3.3.5a7.8,7.8,0,0,0,2.5.7c4.1.4,8.4-1.4,11.1-2.5h.3C318.8,76.4,319.7,78.6,318.9,80.2Z"/>
    <path d="M317.5,82.5c-3.2,4.4-9,8-12.6,7.1a2.2,2.2,0,0,1-1.5-.8,12.2,12.2,0,0,1,7.2-6.1A11.6,11.6,0,0,1,317.5,82.5Z" fill="#ff2ea2"/>
    <path d="M315.9,77.5a12.7,12.7,0,0,1-7.6,4.3c-3.3.5-5.3-.8-6-2.5a7.8,7.8,0,0,0,2.5.7C308.9,80.4,313.2,78.6,315.9,77.5Z" fill="#fff"/>
    <path d="M311.6,171.4l-47.1,11.1a6.7,6.7,0,0,1-1.2,6.8,8.9,8.9,0,0,1-6.9,3.5H250c-2.6,0-4.7-1.3-5.4-3.5a.1.1,0,0,1-.1-.1l-3.5-8.6-31.6-9.2c-.7-.1-.9-.4-1.2-1l-21.5-53.3,5-1.6,37.1,13.2-3.4,8.6,14.2.5,2.5-8.6,1.1-.4,2.8-.9,45.2-15.1L313,169.5C313.3,170.4,312.5,171.1,311.6,171.4Z" fill="#ff78b9"/>
    <path d="M250.5,145.8H250a1.5,1.5,0,0,1-1.4-1l-5.4-16.1,2.8-.9,5.4,16A1.4,1.4,0,0,1,250.5,145.8Z" fill="#ff2ea2"/>
    <path d="M191.6,115.5l5-7.5s24.8.9,30.8,4.2,7.5,10.2,7.5,10.2,4.1-8.2,15-11.6,35-2.8,35-2.8l2.1,6.3-44.9,14.9-2.5,8.6-14.2-.5,3.4-8.6Z" fill="#ffdaa2"/>
    <path d="M235.7,141.1h-6.5a5.4,5.4,0,0,1-5.4-3.5,7.1,7.1,0,0,1,1.7-6.7l-38.2-13.2a1.2,1.2,0,0,1-.5-1.9l1.1-2a1.6,1.6,0,0,1,2-.9L230.8,127a2.3,2.3,0,0,1,1.5,1.9,3.4,3.4,0,0,1-1.1,2.7l-1.9,1.9a1.6,1.6,0,0,0-.5,1.7,1.4,1.4,0,0,0,1.3.9H237a2.4,2.4,0,0,0,1.7-.9,1.6,1.6,0,0,0,.2-1.7l-1.1-1.9a2.9,2.9,0,0,1,.1-2.7,4.1,4.1,0,0,1,2.3-2l49.4-14.8a1.2,1.2,0,0,1,1.6.9l.2,2.1a1.8,1.8,0,0,1-1.3,1.8l-46.3,13.9c.9,2.1.4,4.6-1.2,6.8A9,9,0,0,1,235.7,141.1Zm-7.6-9.3h0Z" fill="#ffaed7"/>
    <g>
      <path d="M396.4,192.8c-3.1,11.8-11.2,21.4-34.6,27.8s-48.8,13.6-56,5.8-9.9-46.1-10.5-57.1c-.1-1.6,32-1,50.9,2.1h.7a7.5,7.5,0,0,1-.4-1.6h0a7.6,7.6,0,0,1-.1-1.5c0-2.5,1.4-4.8,4-7.2a6.2,6.2,0,0,0,1.7-3.3s.9-17.1,6.3-33c.8-2.6,1.8-5.4,2.8-8.3.4-1-.8-11.3-.8-11.3l13.3-23.6c10.2-1.8,14.1,5.6,14.5,13.6.8,16.4.2,25.3,2.7,48.8.7,6.1,1.6,11.6,2.5,16.6s1.9,9.3,2.6,13.4h0a12.9,12.9,0,0,0,.4,1.9h0C397.4,182.4,397.8,187.8,396.4,192.8Z" fill="#2859d1"/>
      <path d="M379.2,180.6c-8.1-7.5-19.5-9.9-32.5-12.2h-.3a7.6,7.6,0,0,0,.1,1.5h0a7.5,7.5,0,0,0,.4,1.6l8,1.5c7.1,1.5,13.5,3.5,18.6,6.9h.1a23.3,23.3,0,0,1,3.6,2.8,1.8,1.8,0,0,0,1,.4,1.6,1.6,0,0,0,1.1-.5A1.4,1.4,0,0,0,379.2,180.6Z"/>
      <path d="M302.3,190.4c1,8.9,3.9,25.1,5.5,28.9s3.6,4.3,5.9,4.7a33.9,33.9,0,0,0,7.1.1l-9.6-34Z"/>
      <path d="M314.2,200.8l-34.3-12.2a5,5,0,0,0-3.6.3c-5.4,2.6-22.6,10.4-30.9,8.9-3-.5-6.5-2.7-7.2-6.4a8.7,8.7,0,0,1,2-7.4,1.4,1.4,0,0,0-.3-2.2,9.9,9.9,0,0,1-5-8.2v-.3a11,11,0,0,1,.4-2.7v-.3l-11.2-5.6c-2.8-1.3-7.5-3.9-8.1-7.1s1-6.5,4.6-7a17.9,17.9,0,0,1,7.6,1.6l18.7,7.4a10.8,10.8,0,0,0,5.3.8l10.8-.9s-5-15.7-5.7-19.6,1.1-7.4,4.9-7.7,6.6,2.2,8.5,6.9,6.9,15.9,9.9,22.3a9.3,9.3,0,0,0,6,5.1l7,2.1a23.4,23.4,0,0,1,15.9,16.2Z" fill="#c65c47"/>
      <path d="M245.2,175.1a6.6,6.6,0,0,1-2.1.3,26.3,26.3,0,0,1-8.2-1.8v-.3a11,11,0,0,1,.4-2.7c3.1,1.1,6.9,2.2,9.3,1.6a1.5,1.5,0,0,1,1.8,1.1A1.5,1.5,0,0,1,245.2,175.1Z" fill="#842825"/>
    </g>
    <path d="M306.8,114.8a11.2,11.2,0,0,1-6.2-1.6,1.5,1.5,0,1,1,1.6-2.5c4.1,2.7,13.9.1,16.9-4.4a1.6,1.6,0,0,1,2.1-.5,1.5,1.5,0,0,1,.4,2.1C319,111.8,312.5,114.8,306.8,114.8Z" fill="#adacac"/>
    <g>
      <g>
        <path d="M112.1,59.9h-6l.2-8.8c0-2-1.1-4.1-2.3-6.4s-3.8-7.4-2.5-12.4,4.1-7.8,6.5-10,4-3.9,4.3-7.2a8,8,0,0,0-3.2-6.8c-2.8-2.2-6.7-2.7-10.7-1.3S90.1,13.7,87,19.1c-5.3,9-11.8,20.3-32.5,13.3l1.9-5.7C72.4,32.1,76.6,25,81.8,16,85.2,10.3,89,3.7,96.5,1.2a17.3,17.3,0,0,1,16.3,2.3,13.9,13.9,0,0,1,5.5,11.9c-.5,5.7-3.5,8.6-6.2,11.1s-4,3.9-4.8,7.1.5,5.4,2,8.3,3,5.6,3,9.2Z" fill="#0ec2bc"/>
        <path d="M112.3,64.1h-6v-13a23.9,23.9,0,0,1,2.3-9.7,16.3,16.3,0,0,0,1.9-6.4c.2-4.2-1.6-6.1-3.9-8.6s-4.7-5.2-5.2-10a12.5,12.5,0,0,1,6-11.9,14.4,14.4,0,0,1,14.9-.9c5.3,3.1,7,7,8.9,11.6a65.4,65.4,0,0,0,4,7.9c4.1,6.9,13.4,8.4,18.2,8.2l18.3-.8.3,6-18.4.8c-7.5.3-18.3-2.4-23.6-11.1a69,69,0,0,1-4.3-8.7c-1.7-4.1-2.8-6.6-6.4-8.7s-5.8-1.1-8.6.7a6.7,6.7,0,0,0-3.3,6.3c.3,2.8,1.8,4.5,3.7,6.5s5.7,6.3,5.4,12.9a25.1,25.1,0,0,1-2.3,8.6,16.5,16.5,0,0,0-1.9,7.3Z" fill="#ff78b9"/>
        <path d="M105.1,6.4a13.7,13.7,0,0,1,2.3-1.9,13.8,13.8,0,0,1,4.1-1.9,17.4,17.4,0,0,0-15-1.4C89,3.7,85.2,10.3,81.8,16c-5.2,9-9.4,16.1-25.4,10.7l-1.9,5.7c20.7,7,27.2-4.3,32.5-13.3,3.1-5.4,6-10.4,11.4-12.2A12,12,0,0,1,105.1,6.4Z" fill="#0ec2bc"/>
        <path d="M110.7,9.5h-.2a7.5,7.5,0,0,1,1.8,5.4c-.3,3.3-2,5-4.3,7.2s-5.3,5-6.5,10,.7,9,2.5,12.4,2.3,4.4,2.3,6.4l-.2,8.8h6l.2-8.8c0-3.6-1.6-6.6-3-9.2s-2.8-5.4-2-8.3,2.7-5,4.8-7.1,5.7-5.4,6.2-11.1A12.7,12.7,0,0,0,116.6,8,9.2,9.2,0,0,0,110.7,9.5Z" fill="#0ec2bc"/>
        <path d="M116.6,8,105.1,6.4a11.9,11.9,0,0,0-3.7,10,14.7,14.7,0,0,0,3.9,8.5,16.8,16.8,0,0,0-3.8,7.3c-1.3,5,.7,9,2.5,12.4s2.3,4.4,2.3,6.4l-.2,8.8h.2v4.3h6v-13a16.5,16.5,0,0,1,1.9-7.3,25.1,25.1,0,0,0,2.3-8.6,15.1,15.1,0,0,0-3-10,14.8,14.8,0,0,0,4.8-9.8A12.9,12.9,0,0,0,116.6,8Zm-6.1,27a16.7,16.7,0,0,1-1.6,5.9c-1.3-2.5-2.3-4.7-1.6-7.3a11.4,11.4,0,0,1,1.9-4A8.9,8.9,0,0,1,110.5,35Zm1.8-20a8.3,8.3,0,0,1-2.7,5.6,8.2,8.2,0,0,1-2.2-4.8,6.7,6.7,0,0,1,3.3-6.3h-.2A7.5,7.5,0,0,1,112.3,15Z" fill="url(#linear-gradient-2)"/>
      </g>
      <g>
        <path d="M62.5,13.6h0a4.8,4.8,0,0,0-5.4,3.8l-.6,4L47.9,20l.9-5.8A12.3,12.3,0,0,0,34.8.1L5.2,4.7,0,37.1,26.6,50.8a12.4,12.4,0,0,0,17.8-9l.8-5.1,8.6,1.4-.5,3.4a4.5,4.5,0,0,0,3.8,5.3h0A4.6,4.6,0,0,0,62.4,43l3.9-24.1A4.6,4.6,0,0,0,62.5,13.6Z" fill="#d7dadd"/>
        <path d="M35.6,45.7a6.9,6.9,0,0,0,3.4-5l1.7-10.3,14,2.3.9-5.9-14-2.3L42.7,18a3,3,0,0,0-3-3.5H11.8a3.1,3.1,0,0,0-3,2.6L6.1,34,29.2,45.9A6.6,6.6,0,0,0,35.6,45.7Z" fill="#0ec2bc"/>
      </g>
      <g>
        <path d="M214.7,7.6a8,8,0,0,0-12.9-5.9L171.1,25l-8.7.5-.2-3.7a4.8,4.8,0,0,0-4.9-4.4h0a4.7,4.7,0,0,0-4.4,4.9l1.4,24.4a4.6,4.6,0,0,0,4.9,4.3h0a4.6,4.6,0,0,0,4.4-4.9l-.2-3.7,8.7-.5,33.1,19.7a8.1,8.1,0,0,0,12.2-7.4Z" fill="#d7dadd"/>
        <path d="M173.1,30.4l-10.4.6.3,5.9,10.4-.6,34.7,20.6a2.6,2.6,0,0,0,3.8-2.4l-1.6-28.4a3,3,0,0,0-3-2.8H183.5a2.8,2.8,0,0,0-1.8.6Z" fill="#ff78b9"/>
      </g>
      <g>
        <path d="M117.6,88.5V63.7h3.7A4.7,4.7,0,0,0,126,59h0a4.7,4.7,0,0,0-4.7-4.6H97A4.7,4.7,0,0,0,92.3,59h0A4.7,4.7,0,0,0,97,63.7h3.7V88.5C86.5,90.4,76,97,76,104.9a10.3,10.3,0,0,0,2.7,6.6,15.2,15.2,0,0,0,12,5.4h36.9a15.6,15.6,0,0,0,12.1-5.4,10.2,10.2,0,0,0,2.6-6.6C142.3,97,131.8,90.4,117.6,88.5Z" fill="#d7dadd"/>
        <path d="M105.7,92.9l-4.3.5C88.6,95.2,81,100.6,81,104.9a5.4,5.4,0,0,0,1.5,3.4,10.5,10.5,0,0,0,8.2,3.6h36.9a10.5,10.5,0,0,0,8.2-3.6,5.4,5.4,0,0,0,1.5-3.4c0-4.3-7.6-9.8-20.4-11.5l-4.3-.6V64.2h-6.9Z" fill="#2859d1"/>
      </g>
    </g>
    <g>
      <path d="M45.4,88.6l-7.9,5.1,10.7,22.8c2.8,4.5,6.3,3.6,10,1.2s6.3-5.4,3.5-9.8h0Z" fill="#ffdaa2"/>
      <path d="M42.7,94.5l-.5.4c-5.2,3.4-9.5,6.8-12.8,8.9s-6.1,2.9-7.7.4c-3.2-5,2.5-15.7,13.5-22.8a38.4,38.4,0,0,1,3.9-2.2c5.9-2.9,11.7-4.1,16-3.7s5.2,1.4,6.4,3.2C64.7,83.7,53.7,87.5,42.7,94.5Z" fill="#ff2ea2"/>
      <path d="M48.5,81.9c-4.4,1.4-8.5.6-9.3-1.8a2.8,2.8,0,0,1-.1-.9c5.9-2.9,11.7-4.1,16-3.7C55.5,77.8,52.6,80.6,48.5,81.9Z" fill="#ffaed7"/>
      <path d="M42.2,94.9c-5.2,3.4-9.5,6.8-12.8,8.9a2.4,2.4,0,0,1-1.5-1c-1.3-2.1.7-5.8,4.6-8.3s8.1-2.8,9.4-.7A2,2,0,0,1,42.2,94.9Z" fill="#ffaed7"/>
    </g>
    <g>
      <path d="M236,83.4c-1.2,7.5-8.2,12.6-8.2,12.6s-5-7.1-3.8-14.6v-.2c1.4-7.7,13.2-5.8,12.1,2C236,83.2,236,83.3,236,83.4Z" fill="#ffdaa2"/>
      <path d="M229.6,97.8a2,2,0,0,1-1.1-.3,2.1,2.1,0,0,1-.6-2.8c.2-.2,10.9-16,12.2-25.4a2,2,0,1,1,3.9.5c-1.4,10.4-12.3,26.5-12.7,27.1A2.1,2.1,0,0,1,229.6,97.8Z" fill="#ff2ea2"/>
      <path d="M250.3,50.9a5.1,5.1,0,0,0-1.7.7,2,2,0,0,1-2.8-.7,4.9,4.9,0,0,0-1.1-1.4,6,6,0,0,0-5.7-1.3,5.9,5.9,0,0,0-3.2,8.6h0a2.1,2.1,0,0,1-.6,2.9l-1.4,1.1a5.6,5.6,0,0,0-1.3,5.8,5.8,5.8,0,0,0,8.5,3.1h.1a2,2,0,0,1,2.9.7,6.7,6.7,0,0,0,1.1,1.4,5.7,5.7,0,0,0,5.7,1.2,5.8,5.8,0,0,0,3.2-8.5h0a2.2,2.2,0,0,1,.7-3h.1a5.9,5.9,0,0,0,1.1-9.1A5.5,5.5,0,0,0,250.3,50.9Z" fill="#ffaed7"/>
      <circle cx="244.9" cy="60.6" r="3.8" fill="#ff2ea2"/>
    </g>
    <path d="M17.9,205.9a8.6,8.6,0,0,1-3.8-5.8l-.6-4a.4.4,0,0,0-.4-.4h0c-.2,0-.3.2-.4.4l-.6,4a8.2,8.2,0,0,1-3.7,5.8l-.5.4c-.1,0-.2.2-.2.3h0a.5.5,0,0,0,.2.4l.5.3a8.2,8.2,0,0,1,3.7,5.8l.6,4c.1.2.2.4.4.4h0a.4.4,0,0,0,.4-.4l.6-4a8.6,8.6,0,0,1,3.8-5.8l.5-.3a.5.5,0,0,0,.2-.4h0c0-.1-.1-.3-.2-.3Z" fill="#8cd9ff"/>
    <path d="M136.1,210.1a8.6,8.6,0,0,1-3.8-5.7l-.6-4.1c0-.2-.2-.3-.4-.3h0c-.2,0-.3.1-.4.3l-.6,4.1a8.2,8.2,0,0,1-3.7,5.7l-.5.4c-.2.1-.2.2-.2.3h0c0,.2,0,.3.2.4l.5.3a8.2,8.2,0,0,1,3.7,5.8l.6,4.1c.1.2.2.3.4.3h0c.2,0,.4-.1.4-.3l.6-4.1a8.6,8.6,0,0,1,3.8-5.8l.5-.3a.5.5,0,0,0,.2-.4h0c0-.1-.1-.2-.2-.3Z" fill="#808aff"/>
    <path d="M168.8,187.7a12.4,12.4,0,0,1-5.5-8.5l-.9-6a.6.6,0,0,0-.6-.5h0a.6.6,0,0,0-.6.5l-.8,6a12.5,12.5,0,0,1-5.6,8.5l-.7.5a.5.5,0,0,0-.3.5h0a.5.5,0,0,0,.3.5l.7.5a12.7,12.7,0,0,1,5.6,8.6l.8,5.9a.6.6,0,0,0,.6.5h0a.6.6,0,0,0,.6-.5l.9-5.9a12.6,12.6,0,0,1,5.5-8.6l.8-.5a.5.5,0,0,0,.3-.5h0a.5.5,0,0,0-.3-.5Z" fill="#ffaed7"/>
    <path d="M399.2,57.2a8.8,8.8,0,0,1-3.8-5.8l-.6-4.1c0-.2-.2-.3-.4-.3h0c-.2,0-.3.1-.4.3l-.6,4.1a8.4,8.4,0,0,1-3.7,5.8l-.5.3c-.2.1-.2.2-.2.3h0c0,.1,0,.2.2.3l.5.3a8.2,8.2,0,0,1,3.7,5.8l.6,4.1c.1.2.2.3.4.3h0c.2,0,.4-.1.4-.3l.6-4.1a8.6,8.6,0,0,1,3.8-5.8l.5-.3c.1-.1.2-.2.2-.3h0l-.2-.3Z" fill="#ffe75c"/>
    <path d="M286,20.2a8.6,8.6,0,0,1-3.8-5.8l-.6-4a.4.4,0,0,0-.4-.4h0c-.2,0-.3.2-.4.4l-.6,4a8.2,8.2,0,0,1-3.7,5.8l-.5.4c-.2,0-.2.2-.2.3h0c0,.2,0,.3.2.4l.5.3a8.2,8.2,0,0,1,3.7,5.8l.6,4c.1.2.2.4.4.4h0a.4.4,0,0,0,.4-.4l.6-4a8.6,8.6,0,0,1,3.8-5.8l.5-.3a.5.5,0,0,0,.2-.4h0c0-.1-.1-.3-.2-.3Z" fill="#34f4cf"/>
    <path d="M89.4,180.8A15.4,15.4,0,0,0,78.3,176a1.6,1.6,0,0,1-1.6-1.9c1.8-5.2-.3-13.5-6-15L59.1,183c5,2,9.2,1.1,14.6-.1l1.8-.3c3.7-.8,7.1.1,9.4,2.6a3.1,3.1,0,0,0,4.4.2A3.3,3.3,0,0,0,89.4,180.8Z" fill="#ff2ea2"/>
    <circle cx="57.2" cy="166.8" r="16.8" transform="translate(-110.1 111) rotate(-52.6)" fill="#ffdaa2"/>
    <circle cx="51.9" cy="164.8" r="11.5" transform="translate(-110.6 106) rotate(-52.6)" fill="#ffaed7"/>
    <circle cx="51.9" cy="164.8" r="5.3" transform="translate(-110.6 106) rotate(-52.6)" fill="#ff2ea2"/>
  </g>
</svg>
