<svg id="Art" xmlns="http://www.w3.org/2000/svg" xmlns:xlink="http://www.w3.org/1999/xlink" viewBox="0 0 420 230">
  <defs>
    <linearGradient id="linear-gradient" x1="433.16" y1="13.29" x2="310.56" y2="72.09" gradientUnits="userSpaceOnUse">
      <stop offset="0" stop-color="#8cd9ff"/>
      <stop offset="0.32" stop-color="#79cbff"/>
      <stop offset="0.69" stop-color="#6bc0ff"/>
      <stop offset="1" stop-color="#66bcff"/>
    </linearGradient>
    <linearGradient id="linear-gradient-2" x1="403.6" y1="122.02" x2="341.71" y2="90.21" gradientUnits="userSpaceOnUse">
      <stop offset="0.06" stop-color="#aa5f44"/>
      <stop offset="0.29" stop-color="#a15741"/>
      <stop offset="0.59" stop-color="#8f473b"/>
    </linearGradient>
    <linearGradient id="linear-gradient-3" x1="120.72" y1="100.8" x2="202.73" y2="51.99" gradientTransform="matrix(1, 0.03, -0.03, 1, 36.15, -25.31)" gradientUnits="userSpaceOnUse">
      <stop offset="0" stop-color="#ff2ea2"/>
      <stop offset="0.36" stop-color="#ff4eac"/>
      <stop offset="0.77" stop-color="#ff78b9"/>
    </linearGradient>
  </defs>
  <g>
    <g>
      <path d="M376.3,163.9s-27.6,38.8-43.1,51.3c-12,9.7-20.3,9.8-28.9.2-11.6-13.1-40.2-57.8-40.2-57.8a23.4,23.4,0,0,1,7.5-32.2c10.9-6.8,25.9-3.5,32.7,7.5l15.8,26.3,1.6,2.7.4.5,28.8-25.8Z" fill="#4c7dff"/>
      <path d="M321.7,161.9a62.6,62.6,0,0,0-7.5,11.2,1.5,1.5,0,0,1-1.3.9l-.7-.2a1.6,1.6,0,0,1-.7-2,67,67,0,0,1,8.6-12.6Z" fill="#2859d1"/>
      <g>
        <polygon points="411.2 143.5 381.3 83.4 379.3 79.3 365.9 84.7 370.2 94 396.5 150.5 411.2 143.5" fill="#ff8c19"/>
        <path d="M379,109.7l.7-3.9a8.1,8.1,0,0,0-5.7-9.1c-4.2-1.3-7.3.7-9.5,4.2s-6.9,11.7-7,16.7a18.7,18.7,0,0,0,1.5,6.6l-13.4,12.6a2.8,2.8,0,0,0,0,3.7c6.2,6.7,28.5,29.4,32.3,30.7s5.2-.2,6.9-2.4l12.6-21.4Z" fill="#8f473b"/>
        <path d="M401.2,94.6s-13.3-2-15.7-2.8l17.3,48.4s11.5-6.1,15.3-13.8,1.4-11.8-1.6-15.3-3.9-4.7-4.3-8.3C411.3,93.6,401.2,94.6,401.2,94.6Z" fill="#8f473b"/>
        <polygon points="381.3 83.4 370.2 94 365.9 84.7 379.3 79.3 381.3 83.4"/>
        <polygon points="416.7 148.6 396.6 158.2 390.2 150.1 414.3 138.5 416.7 148.6" fill="#ed5f00"/>
        <polygon points="385.1 80 363 90.7 354.1 80 382.2 66.5 385.1 80" fill="#2859d1"/>
        <polygon points="419.9 46.1 417 54.5 380.1 72.3 377.4 73.6 323.3 99.6 314.8 96.7 294.1 53.5 297 45.1 390.8 0 399.2 3 419.9 46.1" fill="url(#linear-gradient)"/>
        <polygon points="353.9 24.8 374.6 67.9 377.4 73.6 380.1 72.3 377.3 66.6 356.6 23.5 353.9 24.8" fill="#4c7dff"/>
        <polygon points="341.2 87 325.9 93 329.7 34.4 345 28 341.2 87" fill="#fff" opacity="0.5"/>
        <polygon points="419.9 46.1 417 54.5 380.1 72.3 377.4 73.6 323.3 99.6 314.8 96.7 326 91.3 341.4 83.9 374.6 67.9 377.3 66.6 419.9 46.1" fill="#4c7dff"/>
        <polygon points="399.2 3 356.6 23.5 353.9 24.8 345 29 329.6 36.4 294.1 53.5 297 45.1 390.8 0 399.2 3" fill="#8cd9ff"/>
        <g>
          <path d="M407,108.2l-3.5,3.2-5-12.7s-8.6,7-12,11.2-1.1,10.4,3.8,12.1a8.9,8.9,0,0,0,3.6.4,1.1,1.1,0,0,1,1.3,1,7.5,7.5,0,0,0,5.3,6.8c6.5,1.9,13.6-6.3,13.6-6.3Z" fill="#8f473b"/>
          <path d="M401.9,96.3c.9-1.4,4.5-8.9-.3-14.6s-9-2.8-11.8-1.3-6.8,9.5-8.9,14.8,1.9,12.3,7.5,12.5C396.2,108,401,97.7,401.9,96.3Z" fill="#8f473b"/>
          <path d="M406.2,95.2l-9.1,10.9a11.5,11.5,0,0,1-8.7,4h-2.7a1.4,1.4,0,0,1-1.2-.7h0l1.8-1.9-.6-.3H388a8.1,8.1,0,0,0,6.8-2.9l8-9.6A17.5,17.5,0,0,1,406.2,95.2Z" fill="#6b2f34"/>
          <path d="M415.2,123.6A18.1,18.1,0,0,1,406,133l-1.4-2.7a14.8,14.8,0,0,0,7.8-7.8,1.4,1.4,0,0,1,1.9-.8A1.5,1.5,0,0,1,415.2,123.6Z" fill="#6b2f34"/>
          <path d="M390.4,110.2c2.8,3.4,3,8.4-.5,11.1s-7.6.9-12.3-1.5-8-4.4-11-7.9-4.3-8.1-1.4-12.1a9.2,9.2,0,0,1,12.7-2C382.2,100.7,388.1,107.5,390.4,110.2Z" fill="url(#linear-gradient-2)"/>
        </g>
      </g>
    </g>
    <path d="M313.9,153.1c-7.2,6.7-31.7,25.1-35.4,27.7s-7.2,4.3-9.9.6l-1.5-2.1-1.9-2.5-1,1.4h0l-1.4,2.1a52.1,52.1,0,0,1-7.8,8.8s-2.5,16.7-7.6,30.6A15.8,15.8,0,0,1,232.6,230H124.3c-5.2,0-11.2-7.4-9.3-15.5,18.5-77.7,36-125.3,36-125.3S172.7,92,184.9,94l83.4,9.1c19,3.8,24.5,9.7,46.4,43.5C315.7,148.2,316.6,150.6,313.9,153.1Z" fill="#ffdaa2"/>
    <path d="M263.1,179.8a9.1,9.1,0,0,1,1.1-1.6l-1.4,2.1A.5.5,0,0,1,263.1,179.8Z" fill="#ffc619"/>
    <path d="M281.3,154.1c-2.7,7.4-7.7,16.3-14.2,25.2l-1.9-2.5c6.1-8.4,10.8-16.8,13.3-23.8a1.7,1.7,0,0,1,1.9-.9A1.6,1.6,0,0,1,281.3,154.1Z" fill="#ffc619"/>
    <path d="M267.9,137.8h0a25.5,25.5,0,0,1-.2,3.9c-1.5,13.6-13.7,24.7-28.6,26.3-6.5.7-15.9-.6-22.2-3.9-16.5-8.9-28-23.7-34.5-32s-10.1-14.9-10.7-20.5c-1.2-11.7,8.4-21.2,20.1-22.3,29.1-2.7,63.8,2.9,72.8,6.6s13.8,9.4,15.2,17.7S274.3,133.4,267.9,137.8Z" fill="#ff78b9"/>
    <path d="M267.9,137.8a25.5,25.5,0,0,1-.2,3.9,53.2,53.2,0,0,1-30.5,10h0a1.5,1.5,0,0,1,0-3A50.5,50.5,0,0,0,267.9,137.8Z" fill="#ff2ea2"/>
    <path d="M161.2,158a19.1,19.1,0,0,1-5.5,37.7s-68.4,12.1-85.8,8.8-13.8-20-7-38.2,10.8-19,23.7-17.9Z" fill="#4c7dff"/>
    <path d="M225.7,173.5l-3.9.8h-.3a6.3,6.3,0,0,1,2,2.8,13.3,13.3,0,0,1,.6,4.9,10.4,10.4,0,0,1-3.9,7.7,3.5,3.5,0,0,0-.9,4c1.2,2.8,1.1,7.8-1.5,10.5s-6.9,3.7-12.5,3.7-14.4-3.2-21.8-5.1-7.9-1.9-11.6-1.9l-26.1-.6,12.6-44.5,18.1.3s19.2-9.2,27-9.9,8.6,1.6,9.5,6.5a20.9,20.9,0,0,1,.4,2.8h10.1c5.4.2,8.6,3.3,9.2,7.7S229.7,172.6,225.7,173.5Z" fill="#8f473b"/>
    <path d="M218,155.6h-.5s-4.7.1-9,.5h-.2a1.5,1.5,0,0,1-.1-3l4.8-.3a20.9,20.9,0,0,1,.4,2.8Z" fill="#6b2f34"/>
    <path d="M223.5,177.2l-6.7.4h-.1a1.4,1.4,0,0,1-1.5-1.3,1.4,1.4,0,0,1,1.3-1.6l5.3-.4h-.3A6.3,6.3,0,0,1,223.5,177.2Z" fill="#6b2f34"/>
    <path d="M195.6,198.6a1.6,1.6,0,0,1-1.5-1.3,1.5,1.5,0,0,1,1.4-1.7,7.6,7.6,0,0,0,5.3-3,7.3,7.3,0,0,0,1.7-5.9,9.8,9.8,0,0,0-.6-2.3,5.5,5.5,0,0,1,1.7-6.3,7.9,7.9,0,0,0,3-7.1,7.6,7.6,0,0,0-3-5.4,7.3,7.3,0,0,0-5.9-1.7,1.5,1.5,0,0,1-1.6-1.3,1.5,1.5,0,0,1,1.3-1.7,11.2,11.2,0,0,1,8.1,2.3,11.5,11.5,0,0,1,4.1,7.4,10.8,10.8,0,0,1-4.1,9.8,2.4,2.4,0,0,0-.8,2.8,11.6,11.6,0,0,1,.8,3.2,11.2,11.2,0,0,1-2.3,8.1,11.1,11.1,0,0,1-7.4,4.1Z" fill="#6b2f34"/>
    <g>
      <g>
        <path d="M233,42.2c-25.4,17.5-45.9,31.4-72,48.1-14.8,9-28.3-13.8-13.2-22.5,26.8-15.6,49.5-29.6,77.4-42.1,5.3-2.4,10.2-.8,11.5,3.3s-1.4,6.7-1.4,6.7S236.8,39.3,233,42.2Z" fill="url(#linear-gradient-3)"/>
        <path d="M148.5,65.3l1,40.3,26.6-16a5.6,5.6,0,0,0,2.3-7L166.2,54.1Z" fill="#ffc619"/>
      </g>
      <path d="M103.4,81.4l48.7,1.7c1.5,21.3-1.6,45.7-1.6,45.7L89,127.2C89.7,119,97.9,87.6,103.4,81.4Z" fill="#464b90"/>
      <path d="M107.9,126.3v24.8a1.9,1.9,0,0,0,1.8,1.9l31,2.2a1.9,1.9,0,0,1,1.7,2.5l-8,23.5,22.1,6.6,15.9-36.1c4.8-11.2-1.3-23.3-15.1-23.8l-47.3-3.4A1.8,1.8,0,0,0,107.9,126.3Z"/>
      <path d="M145.2,83.6a32.4,32.4,0,0,1-4.4,7.2,111.7,111.7,0,0,1-9.3,10.5s-3.6-5.1-8.2-10.9c-1.9-2.4-4-5-6-7.3Z" fill="#ffc619"/>
      <path d="M145.2,83.6a32.4,32.4,0,0,1-4.4,7.2,28.4,28.4,0,0,1-6.8,1.1,30.8,30.8,0,0,1-10.7-1.5c-1.9-2.4-4-5-6-7.3Z" fill="#ff2ea2"/>
      <path d="M165.4,187.7c-3.3-1.9-10.2-3.8-10.2-3.8l-26.3-6.8-4.1,13.6c-1.7,5.6,1.7,11.5,7.6,13.3l26,7.3c7.3,2.2,12.2-3,13.8-8.2S170.9,190.8,165.4,187.7Z" fill="#aa5f44"/>
      <g>
        <g>
          <path d="M44,31.5c9.8-9.6,45-15,61.5-5.4L96.3,39.6c-14.5,0-38.1,4-46.3,4.6S36.5,38.8,44,31.5Z" fill="#ff78b9"/>
          <path d="M56.1,31.6c6.2-2.6,23.6-7.3,41.3-3.9l-5.7,7.5c-10.3-.1-30.8,2.6-35.7,2.9S50.2,34.2,56.1,31.6Z" fill="#ffaed7"/>
          <path d="M58.6,1.6C71.3-3.7,106,4.5,117.7,19.5l-13.6,9.1c-13.4-5.4-36.8-10.5-44.6-13S49,5.6,58.6,1.6Z" fill="#ff78b9"/>
          <path d="M69.8,6.2c6.7-.1,24.6,2,39.8,11.8l-8.1,4.8C92,18.9,72,13.8,67.3,12.3S63.4,6.4,69.8,6.2Z" fill="#ffaed7"/>
        </g>
        <g>
          <path d="M158.9,17.1l-49.8-2.2c-9.7-.4-17.9,7.7-18.3,18S97.9,52,107.6,52.2l50,1.2c9.1.2,16.7-7.7,17-17.6S167.9,17.5,158.9,17.1Z" fill="#ff78b9"/>
          <path d="M159.7,46.9l-57-1.6c-10.2-.2-19,8.4-19.4,19.5s7.5,20,17.8,20.1l57.3.5c9.6.1,17.6-8.4,17.9-19S169.3,47.2,159.7,46.9Z" fill="#ff78b9"/>
        </g>
        <ellipse cx="131.9" cy="46.1" rx="2.3" ry="4.4" transform="translate(5.3 105.1) rotate(-44.3)"/>
        <ellipse cx="153.2" cy="47" rx="4.4" ry="2.3" transform="translate(10.7 120.3) rotate(-44.3)"/>
        <path d="M144.9,57.4a13.1,13.1,0,0,1-2.1,5.7c-1.5,2.3-3.5,3.9-5.3,3.5s-4.2-4.3-4.3-7.9a10.5,10.5,0,0,1,.5-4Z"/>
        <path d="M142.8,63.1c-1.5,2.3-3.5,3.9-5.3,3.5s-4.2-4.3-4.3-7.9C137.6,58.9,141.3,60.6,142.8,63.1Z" fill="#ff2ea2"/>
      </g>
      <path d="M149.1,146.2c-.7,2-16.2,43.1-16.2,43.1l-27.2-3,8.8-29.5h-.1l-3.1-.2L99.1,156a15.5,15.5,0,0,1-14.3-18.5l3.1-14.9,50.6,4C146.4,128,152.5,136.2,149.1,146.2Z" fill="#242145"/>
      <path d="M117.3,148.4l-2.9,8.4-3.1-.2,3.1-9.1a1.5,1.5,0,0,1,2.9.9Z"/>
      <g>
        <path d="M110.6,94.9c-2.6-1.1-7.6-.8-7.6-.8l-.3,5.7c2.6-.2,10.5-.2,10.5-.2S113.6,96.2,110.6,94.9Z" fill="#ff78b9"/>
        <path d="M113.5,99.1c-7-.2-14.1-.8-21.3-.4l-2.5,24.4c7.5-1.8,14.9-3.4,22.2-5.3,3-.7,5.3-5.1,6.5-9S119.2,99.3,113.5,99.1Z" fill="#ff78b9"/>
      </g>
      <g>
        <path d="M92.4,66.1A17.1,17.1,0,0,1,72.9,53.7l-1.6-5.6-54.2,12,.9,5.8A17.1,17.1,0,0,1,5.6,85.4L0,87l6.3,28.4c9,40.4,58.6,53.6,60.7,54.2l3,.7,2.5-2a112.3,112.3,0,0,0,19.2-21.7c12.1-17.8,16.5-36.2,12.8-53L98.2,65.2Z" fill="#66bcff"/>
        <path d="M104.5,93.6,98.2,65.2l-5.8.9A17.1,17.1,0,0,1,72.9,53.7l-1.6-5.6-54.2,12,.9,5.8A17.1,17.1,0,0,1,5.6,85.4L0,87l6.3,28.4c9,40.4,58.6,53.6,60.7,54.2l3,.7,2.5-2a112.3,112.3,0,0,0,19.2-21.7C103.8,128.8,108.2,110.4,104.5,93.6Zm-35,71.2-.6.4h0l-.7-.2c-.5-.2-49-13.1-57.3-50.7L5.5,90.3l1.4-.4A21.8,21.8,0,0,0,22.6,65.2l-.2-1.5L68,53.6l.4,1.4A21.9,21.9,0,0,0,93.2,70.7l1.4-.2,5.3,24.1C108.3,132.2,69.9,164.4,69.5,164.8Z" fill="#8cd9ff"/>
        <path d="M65.3,96.3a28,28,0,0,0-7.1-.6c-.2.6-.3,1.3-.5,1.9l-3.5.5a24,24,0,0,0-3.8,1.2,10.1,10.1,0,0,0-1.3-1.6,29.1,29.1,0,0,0-6.2,3.5,27.8,27.8,0,0,0-.7,19.4,28.9,28.9,0,0,0,9.1,2.2,30.1,30.1,0,0,0,1.1-3.2,10.9,10.9,0,0,1-3-.7l.5-.6a20.5,20.5,0,0,0,16.3-3.6l.8.3a15,15,0,0,1-2.5,1.9,28.3,28.3,0,0,0,2.4,2.5,29.5,29.5,0,0,0,7.2-5.9A27.1,27.1,0,0,0,65.3,96.3ZM52,114.5a3.1,3.1,0,0,1-3.6-2.5,3.2,3.2,0,0,1,2.2-3.9,3.3,3.3,0,0,1,1.4,6.4Zm10.7-2.4a3,3,0,0,1-3.6-2.5,3.2,3.2,0,0,1,2.2-3.9,3.1,3.1,0,0,1,3.6,2.6A3,3,0,0,1,62.7,112.1Z" fill="#fff"/>
      </g>
      <path d="M144,191c-3.3-1.9-10.3-3.9-10.3-3.9l-26.3-6.7L103.3,194a10.8,10.8,0,0,0,7.7,13.2l26,7.4c7.3,2.2,12.2-3,13.8-8.2S149.5,194.1,144,191Z" fill="#d18d5e"/>
    </g>
    <g>
      <path d="M222.3,59.3c-4,3.2-12.7-.6-19.1-5.1a34,34,0,0,1-6.4-5.7c-4.5-5.8-1.4-11.4,4.3-16s12-6.2,16.5-.5a29.8,29.8,0,0,1,4,7.2C224.6,46.5,226.4,56.1,222.3,59.3Z" fill="#242145"/>
      <path d="M222.3,59.3c-4,3.2-12.7-.6-19.1-5.1,4.2-7.4,10.2-13.3,18.4-15C224.6,46.5,226.4,56.1,222.3,59.3Z"/>
      <path d="M251.5,77.6c5.1-10.5,20.6-26.3,21.1-21,.9,9.2-2.7,26.2-14.8,36.4Z" fill="#2859d1"/>
      <path d="M205.2,74.6c-5.3-10.5-21-26.1-21.4-20.8-.8,9.3,3.1,26.2,15.3,36.3Z" fill="#4c7dff"/>
      <path d="M194.1,80.7a39.2,39.2,0,0,1-2.5,3.2l-1.3,1.5c-.5.5-.8,1.1-1.8,1.1a2.6,2.6,0,0,1-2.4-2.3c0-1,.6-1.3,1-1.8l1.5-1.4a38.8,38.8,0,0,1,3.1-2.6,1.7,1.7,0,0,1,2.3.4A1.9,1.9,0,0,1,194.1,80.7Z" fill="#ffe75c"/>
      <path d="M267.4,110c-.7,11.7-14.2,25.5-35,25.5-18.6,0-41.4-9.5-40.9-33.6.2-8.3,5.8-22.7,8.8-31q.8-2.1,1.2-3.6c2.6-8.4,7.1-16.4,13.6-21.2l.9-.5a23.4,23.4,0,0,1,16.2-3.8c10.2,1.3,16,5.7,19.4,11.1s4.7,14.1,5.1,19.5,1.4,10.2,4.2,15.1S268,100.8,267.4,110Z" fill="#4c7dff"/>
      <path d="M251.6,52.9c-3.4-5.4-9.2-9.8-19.4-11.1A23.4,23.4,0,0,0,216,45.6l-.9.5c-6.5,4.8-11,12.8-13.6,21.2q-.5,1.5-1.2,3.6c7.1,2.1,15.1-1.8,18.1-9.3a15.6,15.6,0,0,0,0-12.2c5.1,4,13.5,6.6,21.2,6.6C244.7,56,248.7,54.8,251.6,52.9Z" fill="#242145"/>
      <path d="M262.8,83a25.1,25.1,0,0,0,2.5,3.2l1.3,1.5c.5.5.8,1.1,1.8,1.1a2.6,2.6,0,0,0,2.4-2.3c0-1-.6-1.4-1-1.9l-1.5-1.4-3.1-2.5a1.9,1.9,0,0,0-2.4.4A2.1,2.1,0,0,0,262.8,83Z" fill="#ffe75c"/>
    </g>
    <path d="M192,16.5a8.5,8.5,0,0,1-3.7-5.8l-.6-4a.4.4,0,0,0-.4-.4h0a.4.4,0,0,0-.4.4l-.6,4a8.5,8.5,0,0,1-3.7,5.8l-.6.3a.5.5,0,0,0-.2.4h0c0,.1.1.3.2.3l.6.4a8.5,8.5,0,0,1,3.7,5.8l.6,4a.4.4,0,0,0,.4.4h0a.4.4,0,0,0,.4-.4l.6-4a8.5,8.5,0,0,1,3.7-5.8l.6-.4c.1,0,.2-.2.2-.3h0a.5.5,0,0,0-.2-.4Z" fill="#8cd9ff"/>
    <path d="M24,23.7a8.5,8.5,0,0,1-3.7-5.8l-.6-4a.4.4,0,0,0-.4-.4h0a.4.4,0,0,0-.4.4l-.6,4a8.5,8.5,0,0,1-3.7,5.8L14,24a.5.5,0,0,0-.2.4h0c0,.1.1.3.2.3l.6.4a8.5,8.5,0,0,1,3.7,5.8l.6,4c0,.2.2.3.4.3h0c.2,0,.4-.1.4-.3l.6-4A8.5,8.5,0,0,1,24,25.1l.6-.4c.1,0,.2-.2.2-.3h0a.5.5,0,0,0-.2-.4Z" fill="#808aff"/>
    <path d="M280.3,15a12.1,12.1,0,0,1-5.5-8.5l-.9-6a.6.6,0,0,0-.6-.5h0a.6.6,0,0,0-.6.5l-.9,6a12.1,12.1,0,0,1-5.5,8.5l-.7.5a.5.5,0,0,0-.3.5h0a.5.5,0,0,0,.3.5l.7.5a12.5,12.5,0,0,1,5.5,8.6l.9,5.9a.6.6,0,0,0,.6.5h0a.6.6,0,0,0,.6-.5l.9-5.9a12.5,12.5,0,0,1,5.5-8.6l.8-.5a.5.5,0,0,0,.3-.5h0a.5.5,0,0,0-.3-.5Z" fill="#ffe75c"/>
    <path d="M28.1,198.1a12.7,12.7,0,0,1-5.5-8.5l-.9-6a.6.6,0,0,0-.6-.5h0a.6.6,0,0,0-.6.5l-.8,6a12.5,12.5,0,0,1-5.6,8.5l-.7.5a.5.5,0,0,0-.3.5h0a.5.5,0,0,0,.3.5l.7.5a12.9,12.9,0,0,1,5.6,8.6l.8,5.9a.6.6,0,0,0,.6.5h0a.6.6,0,0,0,.6-.5l.9-5.9a13.2,13.2,0,0,1,5.5-8.6l.8-.5a.5.5,0,0,0,.3-.5h0a.5.5,0,0,0-.3-.5Z" fill="#34f4cf"/>
    <path d="M399,192.2a8.5,8.5,0,0,1-3.7-5.8l-.6-4a.4.4,0,0,0-.4-.4h0a.4.4,0,0,0-.4.4l-.6,4a8.3,8.3,0,0,1-3.8,5.8l-.5.3a.5.5,0,0,0-.2.4h0c0,.1.1.3.2.3l.5.4a8.3,8.3,0,0,1,3.8,5.8l.6,4c0,.2.2.3.4.3h0c.2,0,.4-.1.4-.3l.6-4a8.5,8.5,0,0,1,3.7-5.8l.6-.4c.1,0,.1-.2.1-.3h0c0-.2,0-.3-.1-.4Z" fill="#ffaed7"/>
    <g>
      <ellipse cx="236.3" cy="80" rx="7.1" ry="9.9" fill="#fff"/>
      <ellipse cx="238.4" cy="79.3" rx="3.6" ry="5"/>
      <path d="M252.5,109.3a19.6,19.6,0,0,1-3.8,5.4,22.9,22.9,0,0,1-5.9,4.3l-1.8.8a20.8,20.8,0,0,1-7.7,1.3,25.3,25.3,0,0,1-7.6-1.7,23.3,23.3,0,0,1-6.6-4,19.9,19.9,0,0,1-5.6-7.7,22.2,22.2,0,0,1-1-3.9c-.6-3.4.3-6.9,3.1-8.4s3.6-1.1,6.2-.4c5.2,1.5,9.6,5.3,14.8,5.3,3.6,0,6.2-2.1,10.2-2l2.8.3C252.7,99.4,255.4,103.3,252.5,109.3Z"/>
      <path d="M248.7,114.7a22.9,22.9,0,0,1-5.9,4.3l-1.8.8a.6.6,0,0,1,.1-.4l.6-1.8,2.1-5.6c.8-2.7,2.5-3.4,3.8-.4A16.3,16.3,0,0,1,248.7,114.7Z" fill="#fff"/>
      <path d="M242.8,119l-1.8.8a20.8,20.8,0,0,1-7.7,1.3,25.3,25.3,0,0,1-7.6-1.7,23.3,23.3,0,0,1-6.6-4,19.9,19.9,0,0,1-5.6-7.7,26.3,26.3,0,0,1,4.9-.4c9.3,0,18.4,4.2,23.3,10.3A7.6,7.6,0,0,1,242.8,119Z" fill="#ff2ea2"/>
      <path d="M225.7,119.4a23.3,23.3,0,0,1-6.6-4l1.2-3.4c.8-2.7,2.6-3.4,3.9-.4A17.8,17.8,0,0,1,225.7,119.4Z" fill="#fff"/>
      <path d="M246.8,98.3c-1.5,5.5-7.3,6.6-14.2,6.2s-15.2-3.3-17-9.1c1.5-.9,3.6-1.1,6.2-.4,5.2,1.5,9.6,5.3,14.8,5.3C240.2,100.3,242.8,98.2,246.8,98.3Z" fill="#fff"/>
      <path d="M246,64.9c0,3.4-4.4,6.8-9.7,6.8s-9.8-3.6-9.8-7,4.4-2.3,9.8-2.3S246,61.5,246,64.9Z" fill="#242145"/>
    </g>
  </g>
</svg>
