<svg id="Art" xmlns="http://www.w3.org/2000/svg" xmlns:xlink="http://www.w3.org/1999/xlink" viewBox="0 0 420 230">
  <defs>
    <linearGradient id="linear-gradient" x1="305.48" y1="266.11" x2="305.48" y2="117.68" gradientUnits="userSpaceOnUse">
      <stop offset="0.12" stop-color="#ffc619"/>
      <stop offset="0.2" stop-color="#ffbb19"/>
      <stop offset="0.33" stop-color="#ff9f19"/>
      <stop offset="0.41" stop-color="#ff8c19"/>
      <stop offset="0.83" stop-color="#ed5f00"/>
    </linearGradient>
    <linearGradient id="linear-gradient-2" x1="306.74" y1="55.52" x2="313.32" y2="189.55" gradientUnits="userSpaceOnUse">
      <stop offset="0" stop-color="#ffc619"/>
      <stop offset="0.12" stop-color="#ffbb19"/>
      <stop offset="0.32" stop-color="#ff9f19"/>
      <stop offset="0.44" stop-color="#ff8c19"/>
      <stop offset="0.54" stop-color="#f87a0f"/>
      <stop offset="0.73" stop-color="#ed5f00"/>
    </linearGradient>
  </defs>
  <g>
    <g>
      <rect width="307.9" height="200.81" rx="9.7" fill="#37393f"/>
      <path d="M34.3,0V200.8H9.7A9.6,9.6,0,0,1,0,191.1V9.7A9.6,9.6,0,0,1,9.7,0Z" fill="#292b2f"/>
      <rect x="34.3" y="75.1" width="69.6" height="31.49" fill="#4b4d51"/>
      <circle cx="17.1" cy="109.4" r="11.4" fill="#34f4cf"/>
      <rect x="5.7" y="18" width="22.8" height="22.8" rx="7" fill="#6990ff"/>
      <rect x="5.7" y="44.7" width="22.8" height="22.8" rx="7" fill="#4b4d51"/>
      <circle cx="17.1" cy="82.7" r="11.4" fill="#4b4d51"/>
      <circle cx="8.9" cy="8.9" r="3.2" fill="#4b4d51"/>
      <circle cx="17.1" cy="8.9" r="3.2" fill="#4b4d51"/>
      <circle cx="25.4" cy="8.9" r="3.2" fill="#4b4d51"/>
      <rect x="41.5" y="18" width="57.2" height="9.8" rx="2.2" fill="#4b4d51"/>
      <circle cx="50" cy="59.4" r="9.1" fill="#6990ff"/>
      <path d="M95.7,56.4H65.8a3,3,0,0,0,0,6H95.7a3,3,0,0,0,0-6Z" fill="#4b4d51"/>
      <path d="M94.2,5.6H43.8a3.4,3.4,0,1,0,0,6.8H94.2a3.4,3.4,0,0,0,0-6.8Z" fill="#292b2f"/>
      <path d="M296.3,113.8H136.2c-1.6,0-1.8-1.2-1.8-2.8V79.9c0-1.6.2-2.8,1.8-2.8H296.3a2.8,2.8,0,0,1,2.9,2.8V111A2.8,2.8,0,0,1,296.3,113.8Z" fill="#4b4d51"/>
      <circle cx="50" cy="91.1" r="9.1" fill="#ff78b9"/>
      <path d="M95.7,88.1H65.8a3,3,0,1,0,0,5.9H95.7a3,3,0,0,0,0-5.9Z" fill="#5a5d60"/>
      <circle cx="50" cy="122.4" r="9.1" fill="#34f4cf"/>
      <path d="M95.7,119.4H65.8a3,3,0,1,0,0,5.9H95.7a3,3,0,0,0,0-5.9Z" fill="#4b4d51"/>
      <circle cx="50" cy="153.9" r="9.1" fill="#ff78b9"/>
      <path d="M95.7,150.9H65.8a3,3,0,1,0,0,5.9H95.7a3,3,0,0,0,0-5.9Z" fill="#4b4d51"/>
      <circle cx="50" cy="185.4" r="9.1" fill="#6990ff"/>
      <path d="M95.7,182.4H65.8a3,3,0,1,0,0,5.9H95.7a3,3,0,0,0,0-5.9Z" fill="#4b4d51"/>
      <rect x="41.5" y="32.5" width="57.2" height="9.8" rx="2.2" fill="#4b4d51"/>
      <circle cx="118.9" cy="85.9" r="9.1" fill="#ff78b9"/>
      <path d="M136.2,119.6H296.3a2.8,2.8,0,0,1,2.8,2.8v40.1a2.8,2.8,0,0,1-2.8,2.8H137.2a2.8,2.8,0,0,1-2.8-2.8V121.4A1.8,1.8,0,0,1,136.2,119.6Z" fill="#4b4d51"/>
      <circle cx="118.9" cy="128.4" r="9.1" fill="#6990ff"/>
      <path d="M128,18a9.2,9.2,0,0,1-18.3,0Z" fill="#34f4cf"/>
      <path d="M134.4,18V68.5c0,1.6.2,2.9,1.8,2.9H296.3a2.9,2.9,0,0,0,2.9-2.9V18Z" fill="#4b4d51"/>
      <rect x="111.1" y="173.9" width="188" height="18.12" rx="3.2" fill="#4b4d51"/>
      <circle cx="124" cy="182.8" r="5.7" fill="#5a5d60"/>
    </g>
    <g>
      <path d="M290.9,169.9c-7,5.8-18.3,9.3-31.4,9.3h-4.8l-3-.3a83,83,0,0,1-17.6-3.8l-2.8-1a80.3,80.3,0,0,1-16-8.1l-2.5-1.6a89.8,89.8,0,0,1-13.8-12,8,8,0,0,1,.3-11.3,8.2,8.2,0,0,1,11.4.4,77.1,77.1,0,0,0,11.5,9.9l2.6,1.6a62.9,62.9,0,0,0,12.5,6.1l2.8,1a70.3,70.3,0,0,0,11,2.6l2.6.3,3,.2c11.2.6,19.9-2.1,23.9-5.4a8,8,0,1,1,10.3,12.2Z" fill="#8cd9ff"/>
      <path d="M224.8,152.9l-9.5,13-2.5-1.6,9.4-13Z" fill="#66bcff"/>
      <path d="M240.1,160l-6,15-2.8-1,6-15Z" fill="#66bcff"/>
      <path d="M256.7,163.1l-2,16-3-.3,2-15.9Z" fill="#66bcff"/>
    </g>
    <g>
      <path d="M206.6,141.4c.5-3.5-.2-6.7-2.9-9.2s-6.6-2.8-8.3.4c-.9,1.6-.2,1.6-.2,1.6l-1.6,3-3.7-2.7-2.4,1.1c-1,2.4-.4,6.5,2.3,9.2s8.4,4.5,12.3,2.9S206.1,145,206.6,141.4Z"/>
      <path d="M121.6,44.5l90,107.8a3,3,0,0,1-4.6,3.8h-.1L119.3,46.3a1.6,1.6,0,0,1,.2-2.1A1.5,1.5,0,0,1,121.6,44.5Z" fill="#ffe75c"/>
      <g>
        <circle cx="198.4" cy="134.2" r="3.4" transform="translate(-5.5 259.8) rotate(-65.7)"/>
        <path d="M196,138.9a4.4,4.4,0,0,0-1.6-.2.6.6,0,0,1-.7-.7,2.5,2.5,0,0,0,0-1.7,3.3,3.3,0,0,0-2.3-2.3,3.4,3.4,0,0,0-4.3,3.8,3.4,3.4,0,0,0,2.2,2.6,3.4,3.4,0,0,0,2.8-.2,3,3,0,0,0-.5,2.8,3.3,3.3,0,0,0,2.3,2.3,3.4,3.4,0,0,0,2.1-6.4Z"/>
      </g>
    </g>
    <g>
      <path d="M350.3,208.3A23.8,23.8,0,0,1,326.6,230H284.3a23.8,23.8,0,0,1-23.7-21.7c0-1-.1-2,0-3a20.9,20.9,0,0,1,1-6l8.6-34.8a20,20,0,0,1,19.1-14.2h32.3a20.2,20.2,0,0,1,19.2,14.2l8.6,34.8a25.1,25.1,0,0,1,1,6C350.4,206.3,350.4,207.3,350.3,208.3Z" fill="url(#linear-gradient)"/>
      <path d="M350.3,208.3H260.6c0-1-.1-2,0-3h89.8C350.4,206.3,350.4,207.3,350.3,208.3Z" fill="#ed5f00"/>
      <path d="M310.1,154.5l-.2.4a9.1,9.1,0,0,0-1.1,2.2,9.7,9.7,0,0,0-.4,2.9v26.1a4.6,4.6,0,0,1-4.6,4.1H280.2a4.6,4.6,0,0,1-4.5-5.5l4.8-23.3a9.7,9.7,0,0,1,9.4-7.7h19.7A.5.5,0,0,1,310.1,154.5Z" fill="#ff8c19"/>
      <path d="M308.8,157.1a9.7,9.7,0,0,0-.4,2.9v26.1a4.6,4.6,0,0,1-4.6,4.1H282a4.5,4.5,0,0,1-1.4-4.2l4.1-21.3c1-5.3,4.1-7.6,8.6-7.6Z" fill="#ffe75c"/>
    </g>
    <g>
      <path d="M405.1,191.2a8,8,0,0,1-6,2.7,7.7,7.7,0,0,1-5.3-2.1,62.2,62.2,0,0,0-7.5-5.8l-2.5-1.6a80.4,80.4,0,0,0-13.2-6.4l-2.9-1a72.5,72.5,0,0,0-14.3-3.4l-3-.3a57.9,57.9,0,0,0-12.5.1,8,8,0,0,1-8.9-7,8.1,8.1,0,0,1,7-8.9,76.6,76.6,0,0,1,15.9-.2l3,.4a89.9,89.9,0,0,1,18,4.1l2.8,1a99,99,0,0,1,16.4,7.9l2.5,1.6a83.6,83.6,0,0,1,9.9,7.6A8,8,0,0,1,405.1,191.2Z" fill="#8cd9ff"/>
      <path d="M394.6,172.3,386.3,186l-2.5-1.6,8.3-13.7Z" fill="#66bcff"/>
      <path d="M375.7,162.8,370.6,178l-2.9-1,5.2-15.2Z" fill="#66bcff"/>
      <path d="M354.9,157.7l-1.5,15.9-3-.3,1.5-16Z" fill="#66bcff"/>
      <path d="M418.2,185.8c-8.6-4-17.1-.7-17.5-.6a.1.1,0,0,1-.1.1l-.3.2H400l-.2.2h-.1l-.3.4h-.1c-.1.1-.1.2-.2.4h0a.8.8,0,0,0-.2.4h0a2,2,0,0,0,0,1.1h0v.3a39.6,39.6,0,0,1,.9,11.7,3,3,0,0,0,2.7,3.3h.3a2.9,2.9,0,0,0,2.9-2.8,38,38,0,0,0,.1-6.7,38.7,38.7,0,0,1,4.9,4.3,3.2,3.2,0,0,0,4.3,0,3,3,0,0,0,0-4.3c-1.7-1.6-3.5-3.2-5.2-4.5a16.8,16.8,0,0,1,5.9,1.4,2.8,2.8,0,0,0,1.3.3,3,3,0,0,0,2.7-1.8A2.9,2.9,0,0,0,418.2,185.8Z"/>
    </g>
    <g>
      <path d="M293.4,61.2l1.2-6.9a8,8,0,0,1,7.7-6.7l18.8.6c7.2.3,10.4,4.5,14.7,13.4Z" fill="#66bcff"/>
      <path d="M244.3,90.1c-1.2,7.7,1.8,14.7,6.7,16.2l.6.2h.3c3.9.4,8-5.6,9.2-13.6s-.8-15-4.6-15.9h-.9C250.4,76.8,245.5,82.4,244.3,90.1Z" fill="#ffe75c"/>
      <path d="M366.7,108.9c-1.4,9-4.2,23.7-15.7,28.7-5.9,2.6-15.5,4-28.6,4.7q-6.3.3-13.8.3a100.1,100.1,0,0,1-19.6-1.9c-11.3-2-21.3-5.5-26.2-8.9s-12-8.9-13.5-18.1c-.9-5.2-.4-13,1.1-22.1h0A110.2,110.2,0,0,1,256.2,70c2.4-5.8,8.9-10.3,15.1-11.6a165.2,165.2,0,0,1,39.2-3.2,171.5,171.5,0,0,1,36.9,5.5c13.3,3.6,19.3,14,20.5,19.8C370,90.1,368.2,99.9,366.7,108.9Z" fill="url(#linear-gradient-2)"/>
      <path d="M322.4,142.3q-6.3.3-13.8.3a100.1,100.1,0,0,1-19.6-1.9,23.7,23.7,0,0,1-5.8-7.4c-1.2-2.3.8-3.4,2.6-3.1l2,.3a144.7,144.7,0,0,0,20.8,1.7h3.3c3.2.3,4.7,1.2,5.8,3.6S320.5,140.7,322.4,142.3Z" fill="#ffe75c"/>
      <path d="M347.3,96a63.3,63.3,0,0,1-3.7,13.5,13.7,13.7,0,0,1-9.7,8.1c-6.4,1.5-17.6,3.1-34,2.4s-26.3-3.5-32.2-5.4h-.4c-6.3-2.1-7.7-6.6-6.2-16.9s3.4-17.3,4.8-20.8,3.7-6.9,7.9-8c7.9-1.9,17.3-3.7,33.8-2.8s27.1,3.4,33,5.4c3.9,1.3,6.7,4.2,7.1,8.3a.6.6,0,0,1,.1.4A61.4,61.4,0,0,1,347.3,96Z" fill="#ed5f00"/>
      <path d="M347.3,96a63.3,63.3,0,0,1-3.7,13.5,13.7,13.7,0,0,1-9.7,8.1c-6.4,1.5-17.6,3.1-34,2.4s-26.3-3.5-32.2-5.4h-.4c-2.1-2.6-2.4-6.7-1.4-13.4,1.5-10,3.2-16.6,4.6-19.9s3.5-6.7,7.6-7.7c7.5-1.8,16.6-3.5,32.4-2.7s26.1,3.3,31.7,5.2a10.7,10.7,0,0,1,5.6,4.1A61.4,61.4,0,0,1,347.3,96Z"/>
      <g>
        <ellipse cx="287.8" cy="87.3" rx="4.1" ry="3.7" transform="translate(11.9 207.1) rotate(-40.4)" fill="#57f287"/>
        <ellipse cx="324.7" cy="89.4" rx="4.1" ry="3.7" transform="matrix(0.76, -0.65, 0.65, 0.76, 19.38, 231.53)" fill="#57f287"/>
        <path d="M293.2,95.3a10.5,10.5,0,0,0,10,12.3,13.3,13.3,0,0,0,13.6-11Z" fill="#57f287"/>
      </g>
      <path d="M374.4,102.4c1.2-7.7-1.7-14.7-6.6-16.2h-.9c-3.9-.4-8,5.6-9.3,13.5s.9,15,4.7,15.9h.9C368.3,115.8,373.2,110.1,374.4,102.4Z" fill="#ffe75c"/>
    </g>
    <path d="M183.9,212a13,13,0,0,1-5.8-9.1l-1-6.3a.6.6,0,0,0-.6-.5h0a.6.6,0,0,0-.6.5l-1,6.3a13.3,13.3,0,0,1-5.8,9.1l-.8.5a.5.5,0,0,0-.3.5h0a.5.5,0,0,0,.3.5l.8.5a13.1,13.1,0,0,1,5.8,9l1,6.4a.6.6,0,0,0,.6.5h0a.6.6,0,0,0,.6-.5l1-6.4a12.8,12.8,0,0,1,5.8-9l.8-.5a.5.5,0,0,0,.3-.5h0a.5.5,0,0,0-.3-.5Z" fill="#34f4cf"/>
    <path d="M232.7,41.9a8.5,8.5,0,0,1-3.7-5.8l-.6-4a.4.4,0,0,0-.4-.4h0a.4.4,0,0,0-.4.4l-.6,4a8.3,8.3,0,0,1-3.8,5.8l-.5.3a.5.5,0,0,0-.2.4h0c0,.1.1.3.2.3l.5.4a8.3,8.3,0,0,1,3.8,5.8l.6,4a.4.4,0,0,0,.4.4h0a.4.4,0,0,0,.4-.4l.6-4a8.5,8.5,0,0,1,3.7-5.8l.6-.4c.1,0,.1-.2.1-.3h0c0-.2,0-.3-.1-.4Z" fill="#8cd9ff"/>
    <path d="M378.6,28.9a8.5,8.5,0,0,1-3.7-5.8l-.6-4a.4.4,0,0,0-.4-.4h0a.4.4,0,0,0-.4.4l-.6,4a8.5,8.5,0,0,1-3.7,5.8l-.6.3a.5.5,0,0,0-.2.4h0l.2.4.6.3a8.5,8.5,0,0,1,3.7,5.8l.6,4a.4.4,0,0,0,.4.4h0a.4.4,0,0,0,.4-.4l.6-4a8.5,8.5,0,0,1,3.7-5.8l.6-.3a.8.8,0,0,0,.2-.4h0a.5.5,0,0,0-.2-.4Z" fill="#ffe75c"/>
    <path d="M418.8,122.9a14.1,14.1,0,0,1-6.5-9.9l-1-7a.9.9,0,0,0-.7-.6h0a.9.9,0,0,0-.7.6l-1,7a14.5,14.5,0,0,1-6.5,9.9l-.9.6a.7.7,0,0,0-.3.6h0a.5.5,0,0,0,.3.5l.9.6a14.9,14.9,0,0,1,6.5,10l1,7a.9.9,0,0,0,.7.6h0a.9.9,0,0,0,.7-.6l1-7a14.5,14.5,0,0,1,6.5-10l.9-.6a.5.5,0,0,0,.3-.5h0a.7.7,0,0,0-.3-.6Z" fill="#ffaed7"/>
  </g>
</svg>
