<svg id="Art" xmlns="http://www.w3.org/2000/svg" xmlns:xlink="http://www.w3.org/1999/xlink" viewBox="0 0 420 230">
  <defs>
    <linearGradient id="linear-gradient" x1="169.32" y1="70.44" x2="169.32" y2="0.2" gradientUnits="userSpaceOnUse">
      <stop offset="0" stop-color="#aa5f44"/>
      <stop offset="0.17" stop-color="#b8704e"/>
      <stop offset="0.4" stop-color="#c68057"/>
      <stop offset="0.66" stop-color="#ce8a5c"/>
      <stop offset="1" stop-color="#d18d5e"/>
    </linearGradient>
    <linearGradient id="linear-gradient-2" x1="265.14" y1="188.12" x2="265.14" y2="166.1" gradientUnits="userSpaceOnUse">
      <stop offset="0.27" stop-color="#ffc619"/>
      <stop offset="0.54" stop-color="#ffce53"/>
      <stop offset="0.89" stop-color="#ffdaa2"/>
    </linearGradient>
  </defs>
  <g>
    <path d="M337.1,214.8l-85.4,3.3-1.2-70.8,19.1,3.4,31.3,5.7,8.5,1.6,9.5,1.7,2.9,3.9A103.4,103.4,0,0,1,335.1,190C340.3,205.3,337.1,214.8,337.1,214.8Z" fill="#a6bfff"/>
    <path d="M321.8,163.6c0,4.1-3.1,7.2-7.7,7.2h-.9a1.4,1.4,0,0,0,.2.6c1.2,5.3-2.1,9.6-7.5,9.6a12.7,12.7,0,0,1-8.6-3.7,7.8,7.8,0,0,1-6.9,3.7,12.8,12.8,0,0,1-11.9-9.6,1.3,1.3,0,0,0-.1-.6h-.9a12.4,12.4,0,0,1-11.6-9.5c-7-5-6.5-11-6.5-11l10.2.4,31.3,5.7,8.5,1.6,9.5,1.7Z" fill="#4c7dff"/>
    <path d="M309.4,158c-.2,7.6-6.5,12.4-14.4,11.3s-13.7-6.6-21.1-14.4l27,1.5Z" fill="#0ec2bc"/>
    <g>
      <path d="M392.8,163.5l-.8,4L381.7,219a3.8,3.8,0,0,1-4.4,3.1l-26.1-3.7a3.8,3.8,0,0,1-3.3-4.2l4.1-46.6.8-9.8,16.8,2.4,6.5.9Z" fill="#d7dadd"/>
      <polygon points="376.1 161.1 375.2 167.5 373.1 181.9 366.6 181 368.6 167.6 369.6 160.2 376.1 161.1" fill="#4c7dff"/>
      <path d="M392,167.5,381.7,219a3.8,3.8,0,0,1-4.4,3.1l-26.1-3.7a3.8,3.8,0,0,1-3.3-4.2l4.1-46.6h40Z" fill="#66bcff"/>
      <polygon points="372.8 138 369.6 159.9 376.1 160.8 379.2 138.9 372.8 138" fill="#4c7dff"/>
      <rect x="350.1" y="157.7" width="45.9" height="3" rx="1.5" transform="translate(26.1 -50.9) rotate(8.1)" fill="#adacac"/>
      <circle cx="373" cy="210.7" r="5.9"/>
      <circle cx="377.2" cy="186.3" r="5.9"/>
      <circle cx="358.6" cy="198.6" r="5.9"/>
      <circle cx="361.9" cy="209" r="5.9"/>
      <circle cx="362.7" cy="183.3" r="5.9"/>
      <circle cx="371.5" cy="195.7" r="5.9"/>
      <circle cx="362.9" cy="200.1" r="5.9"/>
    </g>
    <g>
      <path d="M85.4,180a3.9,3.9,0,0,1-3.5,4.1L55.7,187a4,4,0,0,1-4.3-3.3l-8.1-49.3-1-6.6L59.1,126l6.5-.7,16.8-1.9.5,8.3Z" fill="#d7dadd"/>
      <polygon points="67.9 146.2 61.4 146.9 59.9 133.2 59.1 126 65.6 125.3 66.4 132.8 67.9 146.2" fill="#0ec2bc"/>
      <path d="M51.4,183.7l-8.1-49.3,16.6-1.2,6.5-.4,16.5-1.1L85.4,180a3.9,3.9,0,0,1-3.5,4.1L55.7,187A4,4,0,0,1,51.4,183.7Z" fill="#34f4cf"/>
      <circle cx="60.5" cy="176.5" r="5.9"/>
      <circle cx="66.3" cy="158" r="5.9"/>
      <circle cx="74.9" cy="164.7" r="5.9"/>
      <circle cx="71.6" cy="175.8" r="5.9"/>
      <circle cx="58.6" cy="164.9" r="5.9"/>
      <circle cx="73.3" cy="149.1" r="5.9"/>
      <circle cx="55.4" cy="146.2" r="5.9"/>
      <polygon points="56.7 103.7 59.1 125.7 65.5 125 63.2 103 56.7 103.7" fill="#0ec2bc"/>
      <rect x="39.3" y="122.7" width="45.9" height="3" rx="1.5" transform="translate(-13.2 7.5) rotate(-6.3)" fill="#adacac"/>
    </g>
    <path d="M102.4,206.7l126.6,1,.4-67-.2-26.4c-.1-7.8-4.4-14.5-12.7-14.1s-25.5,4-25.5,4l-58.2,14.4C119,146.3,105.9,192.7,102.4,206.7Z" fill="#3f99f2"/>
    <path d="M186.3,136.5a272.6,272.6,0,0,0-6.1,31,5.5,5.5,0,0,0,5.4,6.3h43.6l.2-33.1-.2-26.4c-.1-7.8-4.4-14.5-12.7-14.1-6.2.3-17,2.3-22.4,3.4Z" fill="#3f99f2"/>
    <path d="M200.6,175.5H186.1a6.9,6.9,0,0,1-6.9-8c1-7.3,5.4-30.3,5.6-31.3a1.5,1.5,0,0,1,1.8-1.2,1.6,1.6,0,0,1,1.2,1.8c-.1.2-4.6,23.9-5.7,31.1a4.1,4.1,0,0,0,1,3.2,3.7,3.7,0,0,0,3,1.4h14.5a1.5,1.5,0,0,1,1.5,1.5A1.5,1.5,0,0,1,200.6,175.5Z" fill="#3442d9"/>
    <path d="M263.8,53c-1.7,9.9-13.3,17.4-39.7,17.4s-89.6-7-113.5-14.5C98,52,85.6,47.8,78.7,39.8s-5.1-18.7,3.4-23.9c13.7-8.3,33.5-2.5,44.4-1.5a42.8,42.8,0,0,0,15.4-1.5c10.6-2.9,19.5-8.9,29-11.5A32.6,32.6,0,0,1,183,.4,25.1,25.1,0,0,1,195.8,5c7.5,5.5,10,14.3,19.9,20a38.5,38.5,0,0,0,6.1,2.7c14.8,4.9,26.6,6.3,34.3,10.5A14.5,14.5,0,0,1,263.8,53Z" fill="url(#linear-gradient)"/>
    <path d="M188.5,19.8c-5.8-10.8-10.9-9.5-13.8-5.4s-9.7,13.2,3.8,17.5S193.1,28.3,188.5,19.8Z" fill="#edb997"/>
    <path d="M215.7,25c-3.2,3.5-10.7,3.4-17.1-2.4S193.7,9.4,195.8,5C203.3,10.5,205.8,19.3,215.7,25Z" fill="#edb997"/>
    <path d="M164.7,17.2c-10.2,6.1-21.5-.6-22.8-4.2h0c10.6-2.9,19.5-8.9,29-11.5C173.4,5.5,171.9,12.9,164.7,17.2Z" fill="#edb997"/>
    <path d="M253.6,52.2c0,.2-.1.5-.1.8-.7,5.2-10.5,9.7-27.8,9.8-37.3.2-84.8-5.9-110.4-14.1-11.2-3.6-19.3-9.2-21-14.4a6.3,6.3,0,0,1-.1-3.6l.3-.8c2.6-5.6,13.3-4.2,24.8-1.7l5.2,1.3c6.2,1.5,12.3,3.1,17,3.9,6.6,1.1,12.6,2,18.3,2.7l3.3.4c18.5,2.2,34.2,2.6,56.6,3.7h2.7l4.4.3c16.8,1.3,24.3,4,26.3,8.4A8.3,8.3,0,0,1,253.6,52.2Z" fill="#8f473b"/>
    <g>
      <path d="M226.8,40.6c-4.5,4.5-12.2,7.1-17.3,8.5A99.1,99.1,0,0,1,185,52.2h-5.9l-2-.2a1.4,1.4,0,0,1-1.4-1.6,1.6,1.6,0,0,1,1.7-1.3c15.4,1.6,35.9-2.1,45-8.6Z" fill="#6b2f34"/>
      <path d="M253.6,52.2c-7.3,4-25.4,6.2-42.9,6.2-12.2,0-24.1-1.1-31.7-3.5a1.5,1.5,0,0,1-.9-1.9,1.3,1.3,0,0,1,1-1,2.7,2.7,0,0,1,.9,0c0,.1,0,.1.1.1,17.8,5.6,62.6,3.8,72.8-3h.2A8.3,8.3,0,0,1,253.6,52.2Z" fill="#6b2f34"/>
      <path d="M169.4,48.3a1.7,1.7,0,0,1-1.2.5,2.1,2.1,0,0,1-1-.4,25.4,25.4,0,0,1-7.4-12.3l3.3.4a22.7,22.7,0,0,0,6.1,9.7A1.5,1.5,0,0,1,169.4,48.3Z" fill="#6b2f34"/>
      <path d="M159.5,45.9a1.6,1.6,0,0,1-1.5,1.3h-.2a62.4,62.4,0,0,1-27.6-9.7,51.5,51.5,0,0,1-10.9-9.3l5.2,1.3c8.5,7.8,22.7,13.8,33.6,14.7A1.6,1.6,0,0,1,159.5,45.9Z" fill="#6b2f34"/>
      <path d="M159.2,50.8a1.5,1.5,0,0,1-1.4,1.6h-1.9c-17,0-47.6-9.4-61.6-18.1a6.3,6.3,0,0,1-.1-3.6c12.4,8.8,46.9,19.4,63.5,18.7A1.4,1.4,0,0,1,159.2,50.8Z" fill="#6b2f34"/>
    </g>
    <path d="M229.4,213.6v.4c0,8.6-1.5,16.3-15,16-20.1-.6-81.5-14.9-81.5-14.9l10.7-26.5,53.9,8v-3.3l.2-20.9h31.5Z" fill="#d18d5e"/>
    <path d="M213.2,197.7a1.5,1.5,0,0,1-1.4,1.2h-.4c-4.2-.9-9.6-1.8-13.9-2.6v-3c4.4.7,10.1,1.7,14.6,2.7A1.3,1.3,0,0,1,213.2,197.7Z" fill="#6b2f34"/>
    <path d="M193.3,50.5,190.1,96l-47.7-2.3,5.3-46.8a4.5,4.5,0,0,1,4.9-4l36.5,2.7A4.6,4.6,0,0,1,193.3,50.5Z" fill="#d18d5e"/>
    <g>
      <ellipse cx="158.7" cy="58.1" rx="1.8" ry="3.4" transform="matrix(0.74, -0.67, 0.67, 0.74, 2.07, 121.57)"/>
      <ellipse cx="175.3" cy="58.9" rx="3.4" ry="1.8" transform="translate(5.8 133) rotate(-42.2)"/>
      <path d="M161.4,73.9c-.2,4.8,1.7,8.8,4.4,8.9s5-3.6,5.2-8.4Z" fill="#fff"/>
      <path d="M206.8,65.7c-6.3-.3-9.3,2.4-16.4,2.6S178.6,67,172.3,68a9.4,9.4,0,0,0-5.5,2.5.5.5,0,0,1-.8,0,10.2,10.2,0,0,0-5.2-3.1c-6.2-1.6-11.2-.5-18-1.4s-9.9-3.9-16.1-4.2c-4.4-.2-6.9,1.8-7,4.9s1.4,4.5,4.2,5.5,10,1.3,12.5,1.1a1.8,1.8,0,0,1,1.7,1,9.2,9.2,0,0,0,7.8,5.3,16.1,16.1,0,0,0,7.7-1.6c8-3.4,9.3-3.8,12.6-3.6s4.6.6,12.2,4.8a14.8,14.8,0,0,0,7.5,2.3,8.9,8.9,0,0,0,8.3-4.4,1.7,1.7,0,0,1,1.7-.9c2.6.5,8.4,1.2,12.6.2s4.7-2.6,4.8-5.1S211.2,66,206.8,65.7Z" fill="#6b2f34"/>
    </g>
    <path d="M208.8,101c-2.2,2.7-13.7,16-37.3,31.5-17.7,11.6-46.2,23.2-52.9,25.6a2.3,2.3,0,0,1-2.8-1.1c-2-3.9-6.8-14-8.1-23.5s5.3-15.5,12.7-18.2v-.2l-.2-3L119.5,98a5.2,5.2,0,0,1,5.1-5.6l65-2.1L197,90A11.4,11.4,0,0,1,208.8,101Z" fill="#ff78b9"/>
    <path d="M168.3,106.5l-47.9,8.6-.2-3,47.5-8.6a1.6,1.6,0,0,1,1.8,1.3A1.5,1.5,0,0,1,168.3,106.5Z" fill="#ff2ea2"/>
    <path d="M143.6,188.6l-7.9,35.9a7,7,0,0,1-10,4.7L99.8,215.6a3.3,3.3,0,0,0-2.9-.1c-3.4,1.2-11.4,4.3-15.6,5.7s-6.1,2.5-10.8,2.1a10.3,10.3,0,0,1-9.6-9.4,10.5,10.5,0,0,1,.5-3.9,1.7,1.7,0,0,0-1.2-1.9,9.3,9.3,0,0,1-6.6-8.9v-.8a9.5,9.5,0,0,1,.8-3H51c-4.8,0-9.5-3.3-9.7-8.1s3.1-8.3,9.2-9.1c4-.6,29-.4,33.9-.4a.5.5,0,0,0,.6-.7c-.6-3.2-3.1-15.1-2.2-19.3s2.7-6.2,5.9-6.2c5.3,0,6.3,7.4,7.3,10.8s4.5,17.6,13.5,19.5S143.6,188.6,143.6,188.6Z" fill="#6b2f34"/>
    <path d="M64.8,196.3a1.5,1.5,0,0,1-1.5,1.6l-9.7.5a9.5,9.5,0,0,1,.8-3h-.9l9.7-.5A1.6,1.6,0,0,1,64.8,196.3Z"/>
    <g>
      <path d="M365.2,195.9a6.6,6.6,0,0,1-5.2,2.6,12.4,12.4,0,0,1-5.4-1.3h-.1c.2.2,2.3,2.2,3.4,3.4s3.9,5.9,2.1,8.9-5.7,3.4-9.3,1.6l-3.9-1.9a1.7,1.7,0,0,0-2.3.7c-.6,1.2-1.2,2.4-1.9,3.6-4.2,7-12.7,13.2-20.7,13.5l-10,.4v-2.5l6.6-26.2a189.7,189.7,0,0,1,13.1-19.8c2.1-2.9,1.4-5.3,4.5-9.9s10.1-6.2,16.8-6.6h4.3c2.8.3,7.2,1.5,8,5s-1.7,6.6-5.7,7.9c-1.6.5-5.5,1-7.3,1.7-.3.1-.3.5,0,.7a38.8,38.8,0,0,1,10.9,8.4C365.6,188.8,367.3,192.9,365.2,195.9Z" fill="#34f4cf"/>
      <path d="M360,198.5a12.4,12.4,0,0,1-5.4-1.3c-2.4-2.2-3.9-3.3-3.9-3.3a1.7,1.7,0,0,1-.2-2.2,1.5,1.5,0,0,1,2.1-.2c.1.1,2.7,2.2,7,6.3A1.6,1.6,0,0,1,360,198.5Z" fill="#0ec2bc"/>
      <path d="M323,212.9c0,10.1-4.4,14.2-4.4,14.2l-6.1.3h-4L246.6,230a16.3,16.3,0,0,1-17-15.7v-1l-.6-54.4c-.1-9.2,3.2-15.2,12.4-15.6,5.6-.2,17.6,7.6,21.6,10,1.4,1.7,3.1,5.3,4.4,9.8a33.8,33.8,0,0,1,.8,3.4c2.4,11.5-.2,18.6-5.2,22.2v7.9h0l45.4,1.7,4.4.2,5.6.2S323,202.8,323,212.9Z" fill="#ffdaa2"/>
      <path d="M323,212.9c0,10.1-4.4,14.2-4.4,14.2l-6.1.3h-4s3.4-4.3,3.4-14.6-2.8-13.9-3.3-14.6l4.4.2,5.6.2S323,202.8,323,212.9Z" fill="#ffc619"/>
      <path d="M263.2,196.6c-2.5,0-11,0-15.9.8H247a1.5,1.5,0,0,1-.2-3c5.2-.8,13.6-.8,16.3-.8Z" fill="#ffc619"/>
      <path d="M263,188.7v1.4L261.2,163h6.2a33.8,33.8,0,0,1,.8,3.4C270.6,178,268,185.1,263,188.7Z" fill="url(#linear-gradient-2)"/>
      <path d="M337.7,208.1a1.1,1.1,0,0,1-.8-.2,9.3,9.3,0,0,1-4.1-6.7,9,9,0,0,1,1.5-6.2,1.1,1.1,0,0,0-.2-1.4,9.4,9.4,0,0,1-3-5.9,9.2,9.2,0,0,1,6.2-9.8,1.5,1.5,0,0,1,.9,2.9,6.3,6.3,0,0,0-4.1,6.6,6.4,6.4,0,0,0,2,4,4,4,0,0,1,.7,5.3,6.2,6.2,0,0,0-1,4.2,6.3,6.3,0,0,0,2.7,4.5,1.5,1.5,0,0,1,.4,2.1A1.3,1.3,0,0,1,337.7,208.1Z" fill="#0ec2bc"/>
    </g>
    <path d="M13.6,186.1a11.5,11.5,0,0,1-5-7.7l-.8-5.5a.5.5,0,0,0-.5-.4h0a.5.5,0,0,0-.5.4l-.9,5.5A11,11,0,0,1,1,186.1l-.8.4a.8.8,0,0,0-.2.5H0a.8.8,0,0,0,.2.5l.8.4a11,11,0,0,1,4.9,7.8l.9,5.4a.5.5,0,0,0,.5.5h0a.5.5,0,0,0,.5-.5l.8-5.4a11.5,11.5,0,0,1,5-7.8l.7-.4a.5.5,0,0,0,.3-.5h0a.5.5,0,0,0-.3-.5Z" fill="#8cd9ff"/>
    <path d="M419,89.1a10.8,10.8,0,0,1-4.9-7.7l-.9-5.4a.5.5,0,0,0-.5-.5h0a.5.5,0,0,0-.5.5l-.8,5.4a11.3,11.3,0,0,1-5,7.7l-.7.5c-.2.1-.3.2-.3.4h0a.5.5,0,0,0,.3.5l.7.5a11.1,11.1,0,0,1,5,7.7l.8,5.4a.5.5,0,0,0,.5.5h0a.5.5,0,0,0,.5-.5l.9-5.4A10.6,10.6,0,0,1,419,91l.8-.5a.8.8,0,0,0,.2-.5h0a.5.5,0,0,0-.2-.4Z" fill="#808aff"/>
    <path d="M90.2,82.1a8.3,8.3,0,0,1-3.8-5.7l-.6-4.1c0-.2-.2-.3-.4-.3h0c-.2,0-.3.1-.4.3l-.6,4.1a8.2,8.2,0,0,1-3.7,5.7l-.5.4c-.2.1-.2.2-.2.3h0c0,.1,0,.2.2.3l.5.3a8.2,8.2,0,0,1,3.7,5.8l.6,4.1c.1.2.2.3.4.3h0c.2,0,.4-.1.4-.3l.6-4.1a8.3,8.3,0,0,1,3.8-5.8l.5-.3.2-.3h0l-.2-.3Z" fill="#ffe75c"/>
    <path d="M301.1,28.9a8.2,8.2,0,0,1-3.7-5.8l-.6-4c-.1-.2-.2-.4-.4-.4h0a.4.4,0,0,0-.4.4l-.6,4a8.3,8.3,0,0,1-3.8,5.8l-.5.3a.5.5,0,0,0-.2.4h0l.2.4.5.3a8.3,8.3,0,0,1,3.8,5.8l.6,4a.4.4,0,0,0,.4.4h0c.2,0,.3-.2.4-.4l.6-4a8.2,8.2,0,0,1,3.7-5.8l.5-.3a.4.4,0,0,0,.2-.4h0c0-.2,0-.3-.2-.4Z" fill="#ffe75c"/>
    <path d="M34.1,41.7a14.4,14.4,0,0,1-6.4-10l-1.1-7a.6.6,0,0,0-.6-.6h0a.7.7,0,0,0-.7.6l-1.1,7a14.4,14.4,0,0,1-6.4,10l-.9.5c-.2.2-.4.4-.4.6h0c0,.2.2.4.4.6l.9.5a14.4,14.4,0,0,1,6.4,10l1.1,7a.7.7,0,0,0,.7.6h0a.6.6,0,0,0,.6-.6l1.1-7a14.4,14.4,0,0,1,6.4-10l.9-.5c.2-.2.4-.4.4-.6h0c0-.2-.2-.4-.4-.6Z" fill="#ffaed7"/>
    <path d="M385.4,17.5A14,14,0,0,1,379,7.6l-1.1-7a.7.7,0,0,0-.7-.6h0a.6.6,0,0,0-.6.6l-1.1,7a14,14,0,0,1-6.4,9.9l-.9.6a.8.8,0,0,0-.4.6h0a.7.7,0,0,0,.4.5l.9.6a14.4,14.4,0,0,1,6.4,10l1.1,7a.6.6,0,0,0,.6.6h0a.7.7,0,0,0,.7-.6l1.1-7a14.4,14.4,0,0,1,6.4-10l.9-.6a.7.7,0,0,0,.4-.5h0a.8.8,0,0,0-.4-.6Z" fill="#8cd9ff"/>
    <g>
      <g>
        <ellipse cx="321" cy="79.5" rx="15.7" ry="21.2" fill="#34f4cf"/>
        <ellipse cx="273.3" cy="79.5" rx="15.7" ry="21.2" fill="#34f4cf"/>
      </g>
      <g>
        <path d="M358.1,110c.4,15.6-6.2,28.2-16.2,37.3-11.7,10.7-28.3,16.5-44.2,16.5a70.7,70.7,0,0,1-42.8-14.6c-11.7-9.2-19.8-22.5-20.2-39.2-.7-27.6,27.9-34.1,62-34.1S357.4,82.4,358.1,110Z" fill="#34f4cf"/>
        <path d="M341.9,147.3c-11.7,10.7-28.3,16.5-44.2,16.5a70.7,70.7,0,0,1-42.8-14.6c7.8-12.6,10.9-32.1,11-46.1l74.5,1.7C345.3,120.3,346.5,134.4,341.9,147.3Z" fill="#adfddc"/>
      </g>
      <g>
        <ellipse cx="270.5" cy="72.5" rx="4.7" ry="6.4"/>
        <circle cx="273" cy="69.3" r="2.7" fill="#fff"/>
      </g>
      <g>
        <ellipse cx="316.3" cy="72.5" rx="4.7" ry="6.4"/>
        <circle cx="318.8" cy="69.3" r="2.7" fill="#fff"/>
      </g>
      <g>
        <path d="M326.2,116.4c-4.7,2.9-11.3,4.6-19.5,4.5-13.5-.2-24.7-4.3-31.8-9.9-4.6-3.8-7.5-8.2-8-12.6,0,0,15.4-4.2,39.5-3.5s28.2,5.8,28.2,5.8C335.3,107,332.4,112.7,326.2,116.4Z" fill="#ff2ea2"/>
        <path d="M326.2,116.4c-4.7,2.9-11.3,4.6-19.5,4.5-13.5-.2-24.7-4.3-31.8-9.9a63.3,63.3,0,0,1,21-3C308.8,108.1,320.1,111.5,326.2,116.4Z" fill="#ffaed7"/>
        <ellipse cx="263.1" cy="98.7" rx="14.8" ry="10.9" transform="translate(7.3 215) rotate(-45)" fill="#4c7dff"/>
        <ellipse cx="340.5" cy="98" rx="10" ry="14.8" transform="translate(30.4 269.5) rotate(-45)" fill="#4c7dff"/>
      </g>
    </g>
  </g>
</svg>
