<svg width="380" height="181" viewBox="0 0 380 181" fill="none" xmlns="http://www.w3.org/2000/svg">
<path fill-rule="evenodd" clip-rule="evenodd" d="M205.527 90.379C205.455 89.8222 205.438 89.2528 205.297 88.7122C204.956 87.4153 204.335 86.2661 203.295 85.347C201.842 84.0605 200.152 83.5261 198.24 83.9495C196.745 84.2783 195.534 85.115 194.634 86.3442C193.952 87.2733 193.512 88.2867 193.348 89.4378C193.225 90.295 193.257 91.1253 193.447 91.9519C193.756 93.2817 194.396 94.439 195.43 95.3866C196.833 96.6733 198.438 97.2755 200.38 96.9573C201.936 96.702 203.126 95.8798 204.051 94.698C205.034 93.44 205.548 91.9948 205.527 90.3792L205.527 90.379ZM193.259 97.0313V108.028H190.102C190.087 108.016 190.073 108.004 190.06 107.988C190.049 107.975 190.035 107.957 190.035 107.94C190.026 99.2144 190.02 90.4865 190.016 81.7586C190.016 81.6661 190.028 81.5758 190.037 81.4896C190.487 81.3827 192.522 81.3723 193.137 81.4752V83.9438C193.509 83.6397 193.754 83.3601 194.021 83.1095C194.922 82.2603 195.961 81.6376 197.159 81.2632C197.997 81.0042 198.852 80.9487 199.724 80.9468C201.064 80.9427 202.321 81.2572 203.507 81.8307C205.897 82.9881 207.431 84.8666 208.25 87.3271C208.686 88.6326 208.833 89.9831 208.703 91.3357C208.526 93.1568 207.942 94.8692 206.803 96.3492C205.367 98.2114 203.486 99.4078 201.102 99.7902C200.556 99.8786 199.996 100.014 199.453 99.9813C198.539 99.9258 197.616 99.8375 196.749 99.4923C195.719 99.0835 194.803 98.5035 193.975 97.7885C193.747 97.5929 193.558 97.3524 193.259 97.0318L193.259 97.0313ZM61.6456 98.2201C61.9781 98.1831 62.4394 98.1524 62.8921 98.0763C63.8169 97.922 64.6886 97.6014 65.4594 97.0895C67.5169 95.7187 68.4964 93.7349 68.7008 91.3649C68.808 90.0964 68.6267 88.8507 68.1552 87.6501C67.2938 85.4671 65.7522 84.0019 63.425 83.3729C62.5446 83.1342 61.635 83.0192 60.7315 83.1446C59.0403 83.3768 57.5892 84.0818 56.3845 85.3028C55.1252 86.5793 54.407 88.0922 54.2194 89.8168C54.0089 91.7264 54.4196 93.5292 55.5822 95.1222C57.0311 97.1079 59.0003 98.1581 61.6456 98.2199V98.2201ZM68.7086 84.3123V81.4343C69.4481 81.3936 70.1513 81.4139 70.9117 81.4221V81.9649C70.9117 87.4634 70.9302 92.962 70.9009 98.4606C70.8924 100.027 70.6378 101.575 69.9489 103.014C69.1927 104.59 68.0622 105.846 66.5308 106.761C65.4736 107.39 64.3216 107.764 63.1147 107.914C60.895 108.192 58.7297 107.972 56.7207 106.917C55.2486 106.147 54.1325 105.028 53.3638 103.579C53.328 103.514 53.3008 103.442 53.2774 103.37C53.267 103.337 53.2796 103.298 53.2839 103.234C53.6694 103.107 54.0758 103.189 54.4737 103.174C54.8574 103.16 55.2447 103.173 55.6154 103.173C55.8934 103.479 56.1376 103.768 56.4071 104.038C57.4328 105.059 58.7154 105.565 60.1392 105.801C60.7749 105.908 61.4091 105.937 62.0429 105.898C63.5571 105.803 64.9749 105.394 66.1666 104.451C67.2767 103.571 67.9821 102.414 68.3674 101.069C68.7488 99.7435 68.7488 98.393 68.6982 96.9665C68.5783 97.0733 68.4771 97.1391 68.4054 97.2274C67.481 98.3622 66.31 99.1617 64.9412 99.7027C63.6522 100.208 62.3085 100.432 60.9228 100.344C59.4803 100.253 58.1198 99.8627 56.8645 99.1453C55.2219 98.204 53.9667 96.8966 53.1158 95.2418C52.5492 94.1442 52.1554 92.987 52.0902 91.7412C52.069 91.3096 51.9808 90.878 52.0038 90.4503C52.1261 88.3187 52.7325 86.3495 54.0845 84.6311C55.5715 82.7398 57.5069 81.5453 59.8951 81.1098C60.7208 80.9596 61.5653 80.9309 62.4267 81.0336C63.6735 81.1816 64.8444 81.4961 65.9333 82.0944C66.8136 82.5772 67.6179 83.155 68.2457 83.9425C68.3637 84.0905 68.4795 84.2404 68.5932 84.3884C68.6332 84.3636 68.671 84.339 68.709 84.3125L68.7086 84.3123ZM276.23 88.3529C276.285 88.3918 276.314 88.4251 276.348 88.431C276.424 88.4434 276.502 88.4495 276.58 88.4476C280.295 88.4434 284.01 88.4391 287.725 88.4328C287.74 88.4328 287.756 88.4143 287.771 88.4001C287.784 88.3899 287.794 88.3755 287.826 88.3385C287.228 86.4761 286.059 85.0825 284.225 84.2396C283.27 83.8039 282.247 83.6458 281.232 83.8308C279.404 84.1575 277.957 85.1154 276.973 86.6714C276.645 87.1913 276.331 87.7382 276.23 88.3527L276.23 88.3529ZM291.425 91.2902H276.07C275.958 91.5099 275.979 91.7094 276.032 91.9108C276.253 92.7518 276.521 93.5721 277.024 94.3016C277.985 95.6872 279.278 96.6039 280.965 96.9471C282.018 97.1589 283.069 97.1384 284.105 96.8361C284.874 96.6141 285.575 96.2894 286.152 95.7261C286.689 95.204 287.211 94.6799 287.51 93.983C287.54 93.9175 287.601 93.8641 287.654 93.7943H291.049C290.802 94.5998 290.461 95.3276 290.025 96.0143C288.747 98.0286 286.868 99.2106 284.535 99.7408C284.107 99.8375 283.659 99.8477 283.221 99.8991C282.993 99.9256 282.766 99.9546 282.538 99.9791C282.441 99.9914 282.344 100.006 282.247 100.002C280.316 99.8906 278.48 99.4651 276.858 98.3819C275.698 97.6049 274.765 96.6222 274.042 95.4362C273.495 94.5358 273.156 93.5634 272.886 92.5624C272.688 91.8267 272.745 91.0682 272.73 90.3158C272.684 88.0133 273.47 85.9762 274.946 84.2311C276.372 82.5435 278.202 81.4295 280.455 81.0658C282.955 80.6606 285.259 81.1416 287.31 82.5865C288.93 83.7275 290.069 85.2527 290.737 87.0968C291.044 87.9455 291.272 88.811 291.358 89.7195C291.404 90.2251 291.445 90.7185 291.426 91.2902H291.425ZM224.405 90.0497C224.268 90.1095 224.178 90.1363 224.102 90.1855C223.483 90.5885 222.781 90.7838 222.067 90.9338C220.77 91.2051 219.445 91.2502 218.131 91.3815C217.281 91.4661 216.459 91.6368 215.691 91.9841C215.351 92.1382 215.04 92.3828 214.77 92.6418C214.288 93.1002 214.17 93.6902 214.162 94.3438C214.149 95.2092 214.539 95.8219 215.242 96.2741C216.282 96.9462 217.474 97.0757 218.668 97.0242C219.347 96.9957 220.04 96.928 220.711 96.7305C221.569 96.4777 222.388 96.1588 223.06 95.5753C223.904 94.8455 224.361 93.904 224.399 92.8003C224.431 91.8999 224.405 90.9975 224.405 90.0499L224.405 90.0497ZM215.208 87.0492H212.022C211.883 86.5926 212.041 86.1671 212.148 85.7685C212.608 84.0417 213.664 82.7591 215.303 81.9347C216.202 81.4826 217.154 81.2236 218.148 81.0571C219.229 80.8782 220.316 80.903 221.383 80.9831C222.786 81.0859 224.153 81.4126 225.353 82.2122C226.568 83.0244 227.234 84.1651 227.527 85.5422C227.546 85.6347 227.541 85.7315 227.541 85.826C227.546 90.303 227.548 94.78 227.548 99.257C227.548 99.331 227.533 99.405 227.525 99.4707C227.099 99.5756 225.241 99.5961 224.519 99.4955V97.6926C224.34 97.812 224.237 97.8573 224.165 97.9313C223.266 98.848 222.131 99.3432 220.903 99.6536C220.29 99.8079 219.667 99.9395 219.022 99.9065C218.873 99.9002 218.719 99.9454 218.567 99.962C218.435 99.9783 218.294 100.023 218.169 99.9968C217.38 99.8303 216.567 99.8919 215.771 99.7008C214.861 99.4807 213.999 99.1787 213.233 98.6667C212.163 97.9577 211.428 97.0059 211.112 95.7479C210.804 94.5375 210.874 93.3577 211.295 92.2022C211.748 90.9649 212.683 90.1406 213.875 89.5856C214.817 89.1456 215.817 88.8992 216.857 88.7697C217.754 88.6587 218.654 88.6069 219.555 88.5414C220.757 88.453 221.973 88.3522 223.097 87.8671C223.375 87.7461 223.647 87.5939 223.885 87.4089C224.603 86.8581 224.567 85.6288 223.979 85.0183C223.485 84.5045 222.87 84.188 222.187 84.0483C221.4 83.8859 220.597 83.7542 219.784 83.8015C218.938 83.8489 218.104 83.9865 217.316 84.3134C216.219 84.7698 215.585 85.594 215.345 86.7225C215.328 86.7947 215.313 86.8687 215.294 86.9404C215.29 86.9571 215.273 86.9693 215.208 87.0496L215.208 87.0492ZM304.905 93.6776H308.127C308.182 93.815 308.253 93.9651 308.3 94.1216C308.698 95.3981 309.633 96.146 310.852 96.625C311.764 96.9806 312.714 97.1143 313.683 97.0524C314.807 96.9784 315.881 96.7175 316.808 96.0312C317.53 95.4965 318.154 94.3084 317.581 93.2765C317.409 92.9661 317.183 92.7339 316.867 92.5613C316.064 92.1234 315.188 91.9075 314.302 91.7369C312.836 91.4554 311.341 91.3381 309.896 90.9374C308.969 90.6802 308.059 90.3805 307.268 89.815C306.223 89.069 305.663 88.076 305.612 86.8017C305.57 85.8008 305.686 84.849 306.225 83.9753C306.941 82.8201 307.967 82.0246 309.245 81.5395C310.292 81.1407 311.376 80.9435 312.511 80.9435C313.653 80.9435 314.784 80.9783 315.885 81.3031C317.818 81.8725 319.261 83.0092 320.072 84.8348C320.276 85.293 320.358 85.8027 320.481 86.294C320.512 86.4152 320.485 86.549 320.485 86.7092H317.298C317.265 86.6185 317.221 86.5201 317.187 86.415C316.829 85.2292 315.995 84.5221 314.828 84.1233C313.744 83.7514 312.655 83.7246 311.534 83.9549C310.641 84.1377 309.881 84.5099 309.245 85.1655C308.561 85.8667 308.706 87.1203 309.641 87.5417C310.389 87.8765 311.157 88.0721 311.951 88.216C313.251 88.4482 314.561 88.6352 315.85 88.9087C316.998 89.1534 318.112 89.4947 319.097 90.1792C319.908 90.7444 320.429 91.4887 320.694 92.3952C320.837 92.8965 320.953 93.4312 320.93 93.9449C320.879 95.1557 320.614 96.3068 319.837 97.3202C318.857 98.6008 317.501 99.2564 315.991 99.6614C314.913 99.9493 313.799 100.079 312.676 99.9987C310.991 99.8793 309.367 99.5238 307.937 98.5742C306.404 97.5567 305.431 96.1649 305.042 94.3909C304.995 94.1752 304.957 93.9593 304.905 93.6778V93.6776ZM86.5149 88.9719C86.8096 88.9802 87.0372 88.9947 87.2625 88.9947C91.1884 88.9965 95.1142 88.9965 99.0419 88.9965C99.4484 88.9965 99.8528 89.0028 100.259 88.9904C100.379 88.9886 100.501 88.9349 100.619 88.9062C100.584 88.715 100.56 88.5647 100.527 88.421C100.499 88.3118 100.459 88.2051 100.417 88.1002C99.6422 86.088 98.3112 84.571 96.2768 83.683C94.914 83.0887 93.5051 82.9655 92.0456 83.2882C90.4788 83.6336 89.2109 84.4476 88.179 85.6192C87.3491 86.5608 86.7973 87.646 86.5151 88.9717L86.5149 88.9719ZM102.966 91.0521H86.3524C86.1755 91.4115 86.3546 91.7445 86.4072 92.0548C86.6031 93.1773 87.0073 94.2341 87.7172 95.1568C88.9385 96.7416 90.4953 97.792 92.5442 98.0943C94.1914 98.3388 95.7708 98.1784 97.2831 97.4775C98.4224 96.9493 99.2523 96.1003 99.8504 95.0336C100.109 94.573 100.324 94.0901 100.583 93.5679C101.282 93.5531 102.005 93.5431 102.769 93.5758C102.561 94.4537 102.23 95.2101 101.828 95.9398C100.927 97.572 99.623 98.791 97.8832 99.5413C96.9629 99.938 95.9984 100.201 94.9831 100.246C94.5621 100.267 94.1388 100.343 93.7173 100.333C91.5756 100.283 89.6233 99.6708 87.9132 98.3921C85.9924 96.9534 84.7752 95.0499 84.3265 92.7559C83.7936 90.0283 84.236 87.4261 85.8471 85.0803C87.0475 83.3333 88.6716 82.0958 90.7184 81.4258C91.7439 81.0885 92.8138 80.9118 93.9025 80.9734C95.8592 81.0826 97.6536 81.6764 99.1826 82.8852C101.025 84.3386 102.23 86.2051 102.767 88.4722C102.963 89.3029 103.047 90.1354 102.965 91.0521H102.966ZM269.952 99.5249H266.805V98.8855C266.805 95.4488 266.818 92.0078 266.797 88.5688C266.793 87.7056 266.648 86.8546 266.239 86.0632C265.658 84.9286 264.731 84.2276 263.48 83.9316C262.067 83.5945 260.768 83.8822 259.573 84.6592C258.615 85.2864 258.047 86.1867 257.762 87.2597C257.672 87.5989 257.64 87.9627 257.64 88.3161C257.63 91.8311 257.634 95.3461 257.634 98.8611V99.4655C257.181 99.5787 255.064 99.595 254.414 99.4944V81.4976C254.799 81.3847 256.72 81.3579 257.495 81.4606V83.1215C257.68 82.9716 257.794 82.8934 257.889 82.7966C258.851 81.8346 260.02 81.2756 261.379 81.0619C262.972 80.811 264.535 80.8954 266.014 81.5551C266.953 81.9724 267.747 82.5929 268.375 83.4154C269.139 84.4181 269.575 85.5509 269.811 86.7617C269.91 87.2734 269.944 87.8059 269.946 88.3302C269.957 91.8637 269.952 95.3972 269.952 98.9307V99.5245L269.952 99.5249ZM178.182 88.3488C180.829 92.1865 183.447 95.9831 186.105 99.8373C185.64 99.9565 185.22 99.8845 184.812 99.8989C184.408 99.9112 184.001 99.9026 183.527 99.9026C182.386 98.2524 181.229 96.5874 180.077 94.9182C178.936 93.2634 177.799 91.6048 176.632 89.9047C176.314 90.1698 176.015 90.3959 175.745 90.6508C174.979 91.3723 174.229 92.1104 173.467 92.8338C173.149 93.1359 172.812 93.4154 172.456 93.7299V99.8618C171.725 99.9376 171.034 99.8862 170.377 99.9006C170.335 99.8555 170.321 99.8433 170.308 99.8266C170.297 99.8142 170.283 99.7957 170.283 99.7815C170.274 91.1851 170.27 82.5907 170.264 73.9965C170.264 73.8855 170.274 73.7745 170.282 73.6265C170.634 73.5507 170.981 73.5977 171.32 73.5895C171.668 73.5812 172.015 73.5877 172.342 73.5877C172.378 73.6247 172.392 73.6388 172.405 73.6532C172.418 73.6656 172.435 73.68 172.439 73.6965C172.447 73.752 172.458 73.8075 172.458 73.8648C172.462 79.4376 172.464 85.0101 172.468 90.5827C172.468 90.5994 172.483 90.6179 172.513 90.6752C172.599 90.6179 172.687 90.5705 172.757 90.5046C173.995 89.3373 175.232 88.1677 176.468 87.0002C177.595 85.9374 178.717 84.8745 179.848 83.8163C180.699 83.0208 181.56 82.2353 182.432 81.4317H185.538C183.051 83.7708 180.634 86.0423 178.182 88.3488H178.182ZM144.723 90.4997C144.651 90.027 144.622 89.3197 144.43 88.658C143.765 86.3495 142.4 84.5776 140.104 83.5827C138.8 83.0175 137.446 82.851 136.042 83.149C134.264 83.5227 132.838 84.4685 131.764 85.858C130.353 87.6834 129.816 89.7739 130.212 92.0329C130.532 93.8667 131.412 95.429 132.91 96.6315C134.491 97.8997 136.267 98.4855 138.322 98.2058C139.744 98.0127 140.986 97.4412 142.044 96.5223C143.815 94.985 144.625 93.0095 144.723 90.4997H144.723ZM127.92 90.6909C127.958 88.3845 128.681 86.3187 130.121 84.5036C131.444 82.8408 133.164 81.7144 135.258 81.2291C138.061 80.5816 140.656 81.1307 142.956 82.8386C144.992 84.3497 146.222 86.3703 146.677 88.8247C146.799 89.4864 146.904 90.1668 146.883 90.8369C146.81 93.4188 145.915 95.6821 144.042 97.5524C142.795 98.8002 141.315 99.6368 139.59 100.06C138.786 100.258 137.962 100.379 137.132 100.334C135.159 100.225 133.358 99.6307 131.779 98.4448C129.946 97.0694 128.836 95.2399 128.226 93.0919C128.154 92.8412 128.118 92.5781 128.089 92.3167C128.023 91.7765 127.975 91.2337 127.92 90.6911L127.92 90.6909ZM106.251 81.4395C107.216 83.937 108.178 86.4141 109.13 88.895C110.082 91.374 111.026 93.8548 112.024 96.4696C114.001 91.376 115.933 86.4075 117.864 81.4374H120.153C120.016 81.7971 119.896 82.126 119.77 82.4531C118.848 84.866 117.923 87.2816 117.003 89.6945C116.318 91.4931 115.64 93.2917 114.956 95.0884C114.13 97.257 113.294 99.4215 112.477 101.592C112.203 102.318 111.887 103.021 111.468 103.681C110.575 105.083 109.303 105.971 107.662 106.324C106.833 106.505 105.986 106.519 105.116 106.3V104.33C105.529 104.33 105.91 104.324 106.293 104.33C107.943 104.363 109.059 103.559 109.834 102.205C110.259 101.458 110.487 100.638 110.773 99.8407C110.811 99.7339 110.843 99.627 110.895 99.4666C108.587 93.4952 106.264 87.4849 103.928 81.4395H106.251H106.251ZM164.975 93.5579C165.72 93.5621 166.409 93.5412 167.144 93.5723C167.108 93.7616 167.096 93.8911 167.058 94.0104C166.643 95.2828 166.009 96.4276 165.087 97.4266C163.733 98.8903 162.077 99.8113 160.083 100.132C159.422 100.239 158.745 100.35 158.08 100.325C155.852 100.247 153.868 99.5295 152.177 98.0743C150.574 96.6972 149.555 94.9848 149.062 92.9725C148.851 92.1112 148.733 91.2293 148.786 90.3437C148.923 88.0638 149.664 85.9918 151.187 84.2363C152.646 82.555 154.501 81.4572 156.734 81.0996C159.364 80.68 161.807 81.2328 163.935 82.8281C164.855 83.5189 165.642 84.3595 166.196 85.3811C166.573 86.078 166.953 86.7749 167.127 87.5559C166.742 87.6854 165.594 87.7119 164.897 87.6133C164.676 87.1959 164.482 86.7623 164.229 86.3656C163.193 84.7314 161.719 83.6665 159.781 83.278C157.429 82.8033 155.356 83.3768 153.564 84.9369C152.083 86.2258 151.26 87.8599 151.009 89.7469C150.839 91.0461 150.986 92.3411 151.517 93.5703C151.943 94.5526 152.492 95.4573 153.296 96.1912C154.703 97.4717 156.338 98.2034 158.3 98.2034C159.672 98.2034 160.94 97.8686 162.096 97.1778C163.376 96.4152 164.24 95.2989 164.8 93.9484C164.848 93.8293 164.905 93.7122 164.975 93.5581L164.975 93.5579ZM243.467 77.0183H246.689V80.8164C247.424 80.876 248.115 80.8367 248.804 80.8432C249.478 80.8513 250.149 80.8451 250.88 80.8451C250.91 81.3734 250.891 81.8589 250.895 82.3436C250.897 82.8349 250.895 83.3241 250.895 83.873C250.179 83.9307 249.488 83.8915 248.801 83.8998C248.127 83.9057 247.454 83.8998 246.75 83.8998C246.731 84.0722 246.708 84.1995 246.708 84.3253C246.708 87.3467 246.7 90.3705 246.721 93.3921C246.725 94.1547 246.961 94.8845 247.434 95.4993C247.75 95.9063 248.191 96.198 248.692 96.3688C249.149 96.5205 249.612 96.64 250.105 96.6152C250.352 96.603 250.598 96.6133 250.872 96.6133V99.5321C250.168 99.5876 249.471 99.6161 248.789 99.538C247.868 99.4311 246.99 99.1514 246.207 98.6334C244.964 97.8157 244.196 96.6788 243.812 95.283C243.559 94.3724 243.467 93.4413 243.467 92.4978V77.0183ZM294.625 81.4232H297.658C297.799 81.9619 297.66 82.511 297.757 83.1233C299.374 81.3967 301.362 80.7594 303.664 80.9814C303.784 81.3638 303.816 83.0923 303.713 83.9847C303.595 83.9949 303.466 84.0195 303.34 84.0217C302.449 84.0402 301.571 84.1634 300.747 84.4944C299.532 84.9796 298.646 85.806 298.205 87.0394C297.951 87.7546 297.828 88.4885 297.83 89.2511C297.841 92.4619 297.835 95.6724 297.835 98.8835V99.5247H294.684C294.661 99.504 294.646 99.4938 294.633 99.4794C294.623 99.4651 294.606 99.4487 294.606 99.4324C294.599 93.5205 294.593 87.6087 294.589 81.697C294.589 81.6248 294.608 81.5527 294.625 81.4232H294.625ZM234.507 99.5299H231.335C231.236 99.0552 231.227 82.0063 231.325 81.4369H234.332C234.442 81.7144 234.376 82.0002 234.387 82.2757C234.4 82.5347 234.391 82.7937 234.391 83.1759C236.015 81.3877 237.965 80.7546 240.235 80.9847C240.351 81.3732 240.376 83.2562 240.273 84.0002C240.096 84.0084 239.907 84.0084 239.721 84.0248C238.78 84.1031 237.86 84.2387 237.001 84.6705C235.758 85.2995 234.972 86.2737 234.646 87.5872C234.538 88.0186 234.513 88.4789 234.511 88.9272C234.503 92.2325 234.507 95.5379 234.507 98.845V99.5295L234.507 99.5299ZM75.1464 81.4374H77.1873V83.3842C78.1306 82.4795 79.0995 81.832 80.2367 81.4539C81.3719 81.0756 82.5367 80.9007 83.7877 80.9975C83.8507 81.682 83.8298 82.311 83.8025 83.0055C83.5475 83.0055 83.3222 82.9994 83.0946 83.0055C82.0838 83.0406 81.0982 83.2173 80.2052 83.6963C78.7392 84.4835 77.8168 85.7045 77.4441 87.2893C77.2631 88.0582 77.2082 88.8474 77.2106 89.6407C77.2143 92.8312 77.2106 96.0213 77.2106 99.2115V99.8797C76.5026 99.9228 75.8373 99.8919 75.1823 99.9001C75.0748 99.45 75.0452 82.1998 75.1464 81.4371V81.4374ZM122.88 73.5884H124.615C124.71 73.5884 124.802 73.6029 124.922 73.613V99.8338C124.608 99.98 124.257 99.881 123.92 99.8975C123.594 99.916 123.265 99.9017 122.974 99.9017C122.926 99.8525 122.911 99.8401 122.898 99.8259C122.888 99.8111 122.873 99.795 122.873 99.7805C122.865 91.1636 122.86 82.5487 122.854 73.9342C122.854 73.8435 122.867 73.751 122.88 73.5886L122.88 73.5884ZM328.049 97.0017C328.125 98.317 326.949 99.3512 325.643 99.353C324.415 99.3552 323.259 98.2412 323.255 97.0139C323.253 95.7868 324.398 94.6089 325.69 94.6666C327.058 94.7262 328.048 95.6532 328.048 97.0017" fill="#23272A"/>
</svg>
